<svg width="43" height="43" viewBox="0 0 43 43" fill="none" xmlns="http://www.w3.org/2000/svg">
<path d="M41.5303 2.93408H1.46973C0.659361 2.93408 0 3.59344 0 4.40381V9.57683C0 10.3912 1.25977 10.3912 1.25977 9.57683V4.40381C1.25977 4.28808 1.35391 4.19385 1.46973 4.19385H41.5303C41.6461 4.19385 41.7402 4.28808 41.7402 4.40381V35.1202C41.7402 35.2359 41.6461 35.3301 41.5303 35.3301H33.4584V34.0195H39.7936C40.1416 34.0195 40.4235 33.7374 40.4235 33.3896V26.7935C40.4235 25.9791 39.1638 25.9791 39.1638 26.7935V32.7597H33.4584V29.965C33.4789 29.9667 33.4995 29.9685 33.5189 29.9702C34.0418 30.0162 34.6922 30.0734 35.1428 29.622C35.5928 29.1711 35.5359 28.52 35.4901 27.9969C35.4408 27.4354 35.4939 27.2817 35.9254 26.923C37.0364 25.9992 37.0571 25.01 35.9254 24.0693C35.4939 23.7103 35.4411 23.5568 35.4901 22.9953C35.6134 21.5863 34.9553 20.8957 33.5189 21.022C32.9583 21.0712 32.8062 21.0179 32.4488 20.5863C31.5264 19.4727 30.5366 19.4521 29.597 20.5863C29.2396 21.0178 29.0876 21.0713 28.527 21.022C27.117 20.8981 26.4299 21.5599 26.5557 22.9953C26.6047 23.5569 26.5519 23.7103 26.1204 24.0693C25.0094 24.993 24.9888 25.9823 26.1204 26.923C26.5519 27.282 26.6047 27.4355 26.5557 27.997C26.4234 29.5061 27.1442 30.0897 28.5873 29.965V32.7599H3.83632V6.76419H39.1638V23.4342C39.1638 24.2486 40.4235 24.2486 40.4235 23.4342V6.13431C40.4235 5.78644 40.1416 5.50442 39.7936 5.50442H3.20644C2.85849 5.50442 2.57656 5.78644 2.57656 6.13431V33.3896C2.57656 33.7374 2.85849 34.0195 3.20644 34.0195H28.5873V35.3301H1.46973C1.35391 35.3301 1.25977 35.2359 1.25977 35.1202V12.7681C1.25977 11.9538 0 11.9538 0 12.7681V35.1202C0 35.9305 0.659361 36.5899 1.46973 36.5899H28.5873V39.4412C28.677 39.9588 28.9755 40.1492 29.4828 40.0123L31.0228 39.296L32.5628 40.0123C32.9439 40.1895 33.4584 39.9094 33.4584 39.4412V36.5899H41.5303C42.3406 36.5899 43 35.9305 43 35.1202V4.40381C43 3.59336 42.3406 2.93408 41.5303 2.93408ZM28.4165 28.7152C27.786 28.7707 27.7554 28.7369 27.8105 28.1067C27.8952 27.1395 27.6727 26.5751 26.9256 25.9541C26.4145 25.5291 26.4146 25.4628 26.9256 25.0378C27.6727 24.4168 27.8952 23.8524 27.8105 22.8852C27.7554 22.2549 27.786 22.2215 28.4165 22.2767C29.3839 22.3619 29.9475 22.1378 30.567 21.3897C30.9904 20.8788 31.0552 20.8788 31.4785 21.3897C32.0982 22.1378 32.6617 22.3616 33.629 22.2767C34.2597 22.2212 34.2901 22.2549 34.2351 22.8852C34.1504 23.8524 34.3729 24.4167 35.1199 25.0377C35.631 25.4627 35.6312 25.5292 35.1198 25.9541C34.3728 26.5752 34.1502 27.1393 34.235 28.1065C34.2903 28.7368 34.2596 28.7706 33.6291 28.7152C33.2335 28.6804 32.7846 28.6409 32.3896 28.805C32.0072 28.9639 31.7384 29.2883 31.4784 29.6021C31.356 29.75 31.1325 30.0198 31.0227 30.0681C30.9129 30.0198 30.6894 29.75 30.567 29.6021C30.307 29.2884 30.0383 28.9639 29.6558 28.805C29.2481 28.6807 28.835 28.6508 28.4165 28.7152ZM31.2885 38.0302C31.12 37.9519 30.9257 37.9519 30.7572 38.0302L29.847 38.4536V30.6977C30.1459 31.0263 30.5147 31.3315 31.0228 31.3315C31.5309 31.3315 31.8997 31.0264 32.1986 30.6978V38.4536L31.2885 38.0302Z" fill="#F2F5F5"/>
<path d="M8.16848 12.0366H29.8824C30.6968 12.0366 30.6968 10.7769 29.8824 10.7769H8.16848C7.354 10.7769 7.354 12.0366 8.16848 12.0366Z" fill="#F2F5F5"/>
<path d="M35.4614 15.238C35.4614 14.8902 35.1795 14.6082 34.8315 14.6082H8.16866C7.35426 14.6082 7.35426 15.8679 8.16866 15.8679H34.8316C35.1795 15.8679 35.4614 15.5859 35.4614 15.238Z" fill="#F2F5F5"/>
<path d="M23.9471 19.0691C23.9471 18.7212 23.6652 18.4392 23.3173 18.4392H8.16866C7.35426 18.4392 7.35426 19.699 8.16866 19.699H23.3173C23.6651 19.699 23.9471 19.417 23.9471 19.0691Z" fill="#F2F5F5"/>
<path d="M15.6759 27.849C15.3325 27.8496 14.989 27.85 14.6456 27.8503C13.9848 27.8508 13.6211 27.6747 13.4862 26.9741C13.3629 26.3345 12.4405 26.416 12.2714 26.9741C12.1966 27.2212 11.8186 27.9288 11.4885 27.8709C11.3136 27.8403 11.2371 27.5704 11.1725 27.4307C11.0466 27.1587 10.9549 26.8703 10.8763 26.5814C10.5448 25.3608 10.4786 24.0863 10.2711 22.8427C10.1509 22.1215 9.05161 22.3254 9.03389 23.0102C8.97745 25.1913 8.62085 27.3426 7.84433 29.387C7.55618 30.1456 8.77354 30.4737 9.05908 29.7219C9.35849 28.9337 9.59616 28.1265 9.78059 27.3073C9.87953 27.6058 9.99752 27.8986 10.1416 28.1833C10.5094 28.9103 11.2596 29.3404 12.0624 29.0171C12.3488 28.9017 12.6102 28.6999 12.8327 28.4544C13.4286 29.1417 14.3152 29.1105 15.1424 29.1095C16.3893 29.1079 17.6362 29.105 18.8832 29.1015C19.6938 29.0993 19.6953 27.8395 18.8832 27.8418C17.8141 27.8448 16.745 27.8472 15.6759 27.849Z" fill="#F2F5F5"/>
<path d="M31.0227 27.9561C32.3793 27.9561 33.4831 26.8525 33.4831 25.4959C33.4831 24.1393 32.3793 23.0356 31.0227 23.0356C29.6662 23.0356 28.5625 24.1394 28.5625 25.4959C28.5625 26.8524 29.6661 27.9561 31.0227 27.9561ZM31.0227 24.2954C31.6847 24.2954 32.2233 24.834 32.2233 25.4959C32.2233 26.1578 31.6847 26.6964 31.0227 26.6964C30.3608 26.6964 29.8223 26.1578 29.8223 25.4959C29.8223 24.8339 30.3608 24.2954 31.0227 24.2954Z" fill="#F2F5F5"/>
</svg>
