<svg width="53" height="53" viewBox="0 0 53 53" fill="none" xmlns="http://www.w3.org/2000/svg">
<path d="M49.2898 23.9499L47.9173 18.4599C48.2925 18.3802 48.5741 18.0473 48.5741 17.6485V16.7633C48.5741 14.8414 47.0105 13.2779 45.0887 13.2779H38.8372V11.4521C38.8372 10.5064 38.0679 9.73706 37.1222 9.73706H5.2557C4.30998 9.73706 3.54065 10.5064 3.54065 11.4521V26.5002C3.54065 26.9584 3.91217 27.3301 4.37053 27.3301C4.8288 27.3301 5.20042 26.9585 5.20042 26.5002V11.4521C5.20042 11.4216 5.22516 11.3968 5.2557 11.3968H37.1221C37.1526 11.3968 37.1773 11.4216 37.1773 11.4521V26.5004C37.1773 26.9587 37.5488 27.3303 38.0072 27.3303C38.4655 27.3303 38.8371 26.9588 38.8371 26.5004V25.5596H48.6265C48.6273 25.5596 48.6279 25.5598 48.6286 25.5598C48.6295 25.5598 48.6302 25.5597 48.6309 25.5597C49.8355 25.5606 50.8584 26.3512 51.2097 27.4407H48.6293C48.171 27.4407 47.7994 27.8122 47.7994 28.2706V30.0409C47.7994 31.4747 48.9658 32.6411 50.3996 32.6411H51.3401V36.2924H49.1702C48.4574 34.2342 46.5009 32.7517 44.2034 32.7517C41.9058 32.7517 39.9492 34.2342 39.2365 36.2924H38.8369V30.0408C38.8369 29.5826 38.4654 29.2109 38.007 29.2109C37.5487 29.2109 37.1771 29.5825 37.1771 30.0408V36.2922H19.9596C19.2468 34.234 17.2902 32.7515 14.9927 32.7515C12.6952 32.7515 10.7385 34.234 10.0258 36.2922H5.2557C5.22516 36.2922 5.20042 36.2675 5.20042 36.237V34.4113H8.79645C9.25471 34.4113 9.62633 34.0397 9.62633 33.5814C9.62633 33.123 9.25482 32.7515 8.79645 32.7515H0.829885C0.371621 32.7515 0 33.123 0 33.5814C0 34.0397 0.371518 34.4113 0.829885 34.4113H3.54075V36.237C3.54075 37.1827 4.31008 37.952 5.2558 37.952H9.73844C9.73823 37.9704 9.73699 37.9888 9.73699 38.0073C9.73699 40.9053 12.0948 43.263 14.9927 43.263C17.8906 43.263 20.2484 40.9053 20.2484 38.0073C20.2484 37.9887 20.2471 37.9704 20.2469 37.952H38.9491C38.9489 37.9704 38.9477 37.9888 38.9477 38.0073C38.9477 40.9053 41.3054 43.263 44.2034 43.263C47.1013 43.263 49.459 40.9053 49.459 38.0073C49.459 37.9887 49.4578 37.9704 49.4576 37.952H52.17C52.6283 37.952 52.9999 37.5805 52.9999 37.1221V28.2704C53 26.085 51.3875 24.2692 49.2898 23.9499ZM38.8372 14.9376H45.0887C46.0954 14.9376 46.9144 15.7566 46.9144 16.7633V16.8186H38.8372V14.9376ZM38.8372 23.9V18.4782H46.2111L47.5666 23.9H38.8372ZM14.9927 41.6035C13.0098 41.6035 11.3967 39.9904 11.3967 38.0075C11.3967 36.0246 13.0098 34.4115 14.9927 34.4115C16.9755 34.4115 18.5887 36.0246 18.5887 38.0075C18.5887 39.9904 16.9755 41.6035 14.9927 41.6035ZM44.2036 41.6035C42.2207 41.6035 40.6075 39.9904 40.6075 38.0075C40.6075 36.0246 42.2207 34.4115 44.2036 34.4115C46.1864 34.4115 47.7996 36.0246 47.7996 38.0075C47.7996 39.9904 46.1864 41.6035 44.2036 41.6035ZM51.3403 30.9814H50.3998C49.8812 30.9814 49.4593 30.5594 49.4593 30.0408V29.1003H51.3402V30.9814H51.3403Z" fill="#F2F5F5"/>
<path d="M14.9926 36.2925C14.0469 36.2925 13.2776 37.0618 13.2776 38.0075C13.2776 38.9532 14.0469 39.7226 14.9926 39.7226C15.9384 39.7226 16.7077 38.9532 16.7077 38.0075C16.7077 37.0618 15.9384 36.2925 14.9926 36.2925Z" fill="#F2F5F5"/>
<path d="M44.2036 36.2925C43.2579 36.2925 42.4885 37.0618 42.4885 38.0075C42.4885 38.9532 43.2579 39.7226 44.2036 39.7226C45.1493 39.7226 45.9186 38.9532 45.9186 38.0075C45.9186 37.0618 45.1493 36.2925 44.2036 36.2925Z" fill="#F2F5F5"/>
<path d="M34.4665 32.7515H22.074C21.6158 32.7515 21.2441 33.123 21.2441 33.5814C21.2441 34.0397 21.6157 34.4112 22.074 34.4112H34.4665C34.9248 34.4112 35.2964 34.0397 35.2964 33.5814C35.2964 33.123 34.9249 32.7515 34.4665 32.7515Z" fill="#F2F5F5"/>
<path d="M13.2223 29.2109H2.60015C2.14188 29.2109 1.77026 29.5825 1.77026 30.0408C1.77026 30.4992 2.14178 30.8707 2.60015 30.8707H13.2223C13.6806 30.8707 14.0522 30.4992 14.0522 30.0408C14.0522 29.5825 13.6806 29.2109 13.2223 29.2109Z" fill="#F2F5F5"/>
<path d="M28.8572 17.9466C28.5332 17.6226 28.0077 17.6226 27.6837 17.9467L20.3038 25.3264L16.4647 21.4874C16.1406 21.1632 15.6152 21.1632 15.2912 21.4874C14.9671 21.8115 14.9671 22.3368 15.2912 22.6609L19.7171 27.0868C19.8791 27.2489 20.0915 27.3299 20.3038 27.3299C20.5161 27.3299 20.7286 27.2489 20.8905 27.0868L28.8571 19.1203C29.1812 18.7961 29.1812 18.2707 28.8572 17.9466Z" fill="#F2F5F5"/>
</svg>
