<svg width="43" height="43" viewBox="0 0 43 43" fill="none" xmlns="http://www.w3.org/2000/svg">
<g clip-path="url(#clip0_32_55)">
<path d="M42.3365 8.67636H38.8354C38.9371 8.53365 39.0293 8.38373 39.11 8.22658C39.5732 7.32178 39.6359 6.25622 39.2819 5.30287L38.2209 2.45132C37.8673 1.49895 37.1242 0.733241 36.183 0.350717C35.2408 -0.0321351 34.1736 -0.00162509 33.2547 0.434702L24.8582 4.42234C24.4432 4.12577 23.9356 3.95058 23.3878 3.95058H19.6124C19.0645 3.95058 18.5567 4.12609 18.1417 4.42267L9.74551 0.434374C8.8266 -0.00162505 7.7594 -0.0321351 6.8172 0.350717C5.87598 0.733241 5.13291 1.49895 4.77926 2.45099L3.71829 5.30319C3.36431 6.25622 3.42697 7.32178 3.89053 8.22658C3.9709 8.38373 4.06342 8.53398 4.16512 8.67636H0.663676C0.297227 8.67636 0 8.97326 0 9.34004V14.1177C0 14.4841 0.297227 14.7813 0.663676 14.7813C1.03013 14.7813 1.32735 14.4841 1.32735 14.1177V10.0034H5.937C6.01081 10.0293 6.08561 10.0533 6.1614 10.0742L11.7329 11.608C10.4948 13.5052 9.40268 15.5008 8.46769 17.5686H1.32735V16.772C1.32735 16.4056 1.03013 16.1087 0.663676 16.1087C0.297227 16.1087 0 16.4056 0 16.772V18.2323C0 18.5987 0.297227 18.8959 0.663676 18.8959H3.03034V42.391C3.03034 42.7578 3.32757 43.0547 3.69402 43.0547H39.3062C39.6726 43.0547 39.9698 42.7578 39.9698 42.391V38.5375C39.9698 38.1711 39.6726 37.8739 39.3062 37.8739C38.9394 37.8739 38.6425 38.1711 38.6425 38.5375V41.7276H25.4815V19.304C27.3613 22.8645 28.6339 26.736 29.2195 30.7361C29.2582 31.0009 29.4524 31.2164 29.7119 31.2827C29.7664 31.2968 29.8215 31.3034 29.8763 31.3034C30.0813 31.3034 30.2788 31.2082 30.4061 31.0393C31.3601 29.7736 32.2472 28.4187 33.048 27.0041C34.3891 27.9174 35.6912 28.9357 36.9267 30.038C37.135 30.2237 37.4375 30.2595 37.6832 30.1269C37.9289 29.9947 38.0658 29.7227 38.0251 29.4465C37.4952 25.8322 36.5074 22.278 35.1073 18.8959H38.6422V35.8828C38.6422 36.2496 38.9394 36.5465 39.3058 36.5465C39.6726 36.5465 39.9695 36.2496 39.9695 35.8828V18.8959H42.3365C42.703 18.8959 42.9999 18.5987 42.9999 18.2323V9.34004C43.0002 8.97326 42.7033 8.67636 42.3365 8.67636ZM33.8239 1.63345C34.416 1.35263 35.0761 1.3336 35.6833 1.58031C36.2896 1.82668 36.7489 2.30008 36.9769 2.91389L38.0375 5.76511C38.2659 6.37925 38.2268 7.03866 37.9283 7.62163C37.6301 8.20428 37.118 8.62092 36.4868 8.79447L25.9227 11.7028V8.51331C28.2973 7.05933 34.2169 4.06048 35.6902 6.14009C35.9018 6.43896 36.3158 6.51015 36.615 6.29822C36.9142 6.08629 36.9851 5.67194 36.7732 5.37307C35.6361 3.76785 33.2399 3.68977 29.6505 5.14146C28.172 5.73919 26.8069 6.46881 25.9227 6.97501V6.48521C25.9227 6.12992 25.8489 5.79135 25.7164 5.48396L33.8239 1.63345ZM19.6124 5.2776H23.3878C24.0538 5.2776 24.5954 5.81957 24.5954 6.48521V11.9708C24.5954 12.6368 24.0538 13.1784 23.3878 13.1784H19.6124C18.9464 13.1784 18.4048 12.6368 18.4048 11.9708V6.48521C18.4048 5.81924 18.9464 5.2776 19.6124 5.2776ZM18.497 17.5682C19.1318 16.5135 19.8227 15.4913 20.5661 14.5058H22.4334C23.1772 15.4913 23.8681 16.5135 24.5025 17.5682H18.497ZM5.07189 7.62163C4.77335 7.03866 4.73431 6.37925 4.96232 5.76544L6.02361 2.91356C6.25129 2.30008 6.71058 1.82668 7.31684 1.58031C7.92376 1.3336 8.58416 1.35263 9.17599 1.63345L17.2838 5.48461C17.1513 5.79168 17.0774 6.12992 17.0774 6.48554V7.01307C16.1963 6.50588 14.8003 5.75461 13.284 5.14146C9.69499 3.68977 7.29847 3.76785 6.1614 5.37307C5.94946 5.67194 6.02033 6.08629 6.31952 6.29822C6.61872 6.51015 7.03274 6.43928 7.24434 6.14009C8.73146 4.0408 14.7485 7.11608 17.0774 8.55367V11.7028L6.51374 8.79479C5.88221 8.62092 5.3701 8.20428 5.07189 7.62163ZM17.3753 13.1613C17.7057 13.7794 18.2844 14.2456 18.9776 14.4251C15.8738 18.7555 13.7371 23.7313 12.7348 28.9613C12.0298 27.9312 11.3707 26.8515 10.7674 25.7364C10.6792 25.573 10.527 25.4543 10.3469 25.4087C10.1671 25.3631 9.97647 25.3949 9.82129 25.4963C8.71604 26.217 7.63375 27.0077 6.58854 27.8567C7.66492 22.2068 9.88887 16.7589 13.078 11.9783L17.3753 13.1613ZM4.35769 18.8959H7.89292C6.49274 22.278 5.50494 25.8319 4.97478 29.4465C4.93443 29.7227 5.07091 29.9947 5.31663 30.1269C5.56268 30.2591 5.86482 30.2237 6.07315 30.038C7.30864 28.9357 8.61073 27.9174 9.95219 27.0041C10.753 28.4187 11.6398 29.7733 12.5941 31.0393C12.7214 31.2082 12.9189 31.3037 13.1239 31.3037C13.1787 31.3037 13.2338 31.2968 13.2883 31.2827C13.5478 31.2164 13.7417 31.0009 13.7804 30.7361C14.3663 26.736 15.6389 22.8642 17.5184 19.3037V41.7276H4.35769V18.8959ZM18.8457 41.7276V18.8959H24.1545V41.7276H18.8457ZM33.1789 25.4963C33.0237 25.3949 32.8328 25.3634 32.6533 25.409C32.4735 25.4546 32.321 25.5734 32.2327 25.7364C31.6294 26.8515 30.9704 27.9315 30.2653 28.9613C29.2631 23.731 27.1264 18.7555 24.0223 14.4254C24.7155 14.2463 25.2945 13.7797 25.6249 13.1613L29.9232 11.978C33.1116 16.7596 35.3356 22.2074 36.412 27.8567C35.3664 27.0077 34.2841 26.217 33.1789 25.4963ZM41.6728 17.5686H34.5328C33.5978 15.5008 32.5057 13.5052 31.2679 11.608L36.8388 10.0742C36.9146 10.0533 36.9894 10.0293 37.0632 10.0034H41.6728V17.5686Z" fill="#F2F5F5"/>
</g>
<defs>
<clipPath id="clip0_32_55">
<rect width="43" height="43" fill="white"/>
</clipPath>
</defs>
</svg>
