<svg width="26" height="23" viewBox="0 0 26 23" fill="none" xmlns="http://www.w3.org/2000/svg">
<path d="M25.7842 6.20212C25.6234 5.99345 25.4076 5.88911 25.1367 5.88911H7.89648L6.57617 1.78528C6.45768 1.41431 6.29687 1.09745 6.09375 0.834677C5.89062 0.571909 5.6748 0.386425 5.44629 0.278226C5.21777 0.170027 5.01888 0.0966062 4.84961 0.0579637C4.68034 0.0193212 4.51107 0 4.3418 0H0.863281C0.643229 0 0.457031 0.0695565 0.304687 0.208669C0.152344 0.347782 0.0761719 0.525538 0.0761719 0.741935C0.0761719 0.865591 0.110026 0.985383 0.177734 1.10131C0.245443 1.21724 0.342773 1.30612 0.469727 1.36794C0.59668 1.42977 0.727865 1.46069 0.863281 1.46069H4.3418C4.4095 1.46069 4.47298 1.46841 4.53223 1.48387C4.59147 1.49933 4.67187 1.56502 4.77344 1.68095C4.875 1.79688 4.95964 1.97077 5.02734 2.20262L9.52148 17.2732C9.55534 17.3659 9.61035 17.4548 9.68652 17.5398C9.76269 17.6248 9.85156 17.6905 9.95312 17.7369C10.0547 17.7833 10.1647 17.8065 10.2832 17.8065H21.252C21.4212 17.8065 21.5778 17.7601 21.7217 17.6673C21.8656 17.5746 21.9629 17.4587 22.0137 17.3196L25.8984 6.88609C25.9831 6.63878 25.945 6.41079 25.7842 6.20212ZM20.6934 16.3226H10.918L8.32812 7.37298H23.9687L20.6934 16.3226ZM19.0937 19.2903C18.5352 19.2903 18.057 19.4719 17.6592 19.8352C17.2614 20.1984 17.0625 20.6351 17.0625 21.1452C17.0625 21.6552 17.2614 22.0919 17.6592 22.4551C18.057 22.8184 18.5352 23 19.0937 23C19.6523 23 20.1305 22.8184 20.5283 22.4551C20.9261 22.0919 21.125 21.6552 21.125 21.1452C21.125 20.6351 20.9261 20.1984 20.5283 19.8352C20.1305 19.4719 19.6523 19.2903 19.0937 19.2903ZM11.7812 19.2903C11.4089 19.2903 11.0661 19.3753 10.7529 19.5454C10.4398 19.7154 10.1943 19.9395 10.0166 20.2177C9.83887 20.496 9.75 20.8051 9.75 21.1452C9.75 21.6552 9.94889 22.0919 10.3467 22.4551C10.7445 22.8184 11.2227 23 11.7812 23C12.3398 23 12.818 22.8184 13.2158 22.4551C13.6136 22.0919 13.8125 21.6552 13.8125 21.1452C13.8125 21.0215 13.7998 20.8979 13.7744 20.7742C13.749 20.6505 13.7109 20.5346 13.6602 20.4264C13.6094 20.3182 13.5459 20.2139 13.4697 20.1134C13.3936 20.0129 13.3089 19.9202 13.2158 19.8352C13.1227 19.7502 13.0212 19.6729 12.9111 19.6033C12.8011 19.5338 12.6868 19.4758 12.5684 19.4294C12.4499 19.3831 12.3229 19.3483 12.1875 19.3251C12.0521 19.3019 11.9167 19.2903 11.7812 19.2903Z" fill="#F1F4F4"/>
</svg>
