<svg width="30" height="30" viewBox="0 0 30 30" fill="none" xmlns="http://www.w3.org/2000/svg">
<path d="M14.9998 25.1998C9.35981 25.1998 4.7998 20.6398 4.7998 14.9998C4.7998 9.35981 9.35981 4.7998 14.9998 4.7998C20.6398 4.7998 25.1998 9.35981 25.1998 14.9998C25.1998 20.6398 20.6398 25.1998 14.9998 25.1998ZM14.9998 5.9998C10.0198 5.9998 5.9998 10.0198 5.9998 14.9998C5.9998 19.9798 10.0198 23.9998 14.9998 23.9998C19.9798 23.9998 23.9998 19.9798 23.9998 14.9998C23.9998 10.0198 19.9798 5.9998 14.9998 5.9998Z" fill="#AFAFAF"/>
<path d="M19.3693 9.78125L20.2177 10.6302L10.6296 20.2183L9.78125 19.3699L19.3693 9.78125Z" fill="#AFAFAF"/>
<path d="M10.6296 9.78125L20.2177 19.3693L19.3693 20.2183L9.78125 10.6302L10.6296 9.78125Z" fill="#AFAFAF"/>
</svg>
