<svg width="13" height="14" viewBox="0 0 13 14" fill="none" xmlns="http://www.w3.org/2000/svg">
<path d="M10.593 4.34517C10.593 3.68229 10.3729 3.14536 9.93281 2.73437C9.49271 2.32339 8.9138 2.1179 8.19609 2.1179H4.94609V6.57244H8.19609C8.9138 6.57244 9.49271 6.36695 9.93281 5.95597C10.3729 5.54498 10.593 5.00805 10.593 4.34517ZM13 4.34517C13 5.62453 12.5717 6.66856 11.7152 7.47727C10.8587 8.28598 9.75339 8.69034 8.39922 8.69034H4.94609V9.86364H10.075C10.1698 9.86364 10.2477 9.89347 10.3086 9.95312C10.3695 10.0128 10.4 10.089 10.4 10.1818V11.4545C10.4 11.5473 10.3695 11.6236 10.3086 11.6832C10.2477 11.7429 10.1698 11.7727 10.075 11.7727H4.94609V13.6818C4.94609 13.7746 4.91393 13.8509 4.84961 13.9105C4.78529 13.9702 4.70911 14 4.62109 14H2.925C2.83021 14 2.75234 13.9702 2.69141 13.9105C2.63047 13.8509 2.6 13.7746 2.6 13.6818V11.7727H0.325C0.230208 11.7727 0.152344 11.7429 0.0914062 11.6832C0.0304687 11.6236 0 11.5473 0 11.4545V10.1818C0 10.089 0.0304687 10.0128 0.0914062 9.95312C0.152344 9.89347 0.230208 9.86364 0.325 9.86364H2.6V8.69034H0.325C0.230208 8.69034 0.152344 8.66051 0.0914062 8.60085C0.0304687 8.54119 0 8.46496 0 8.37216V6.89062C0 6.80445 0.0304687 6.72988 0.0914062 6.6669C0.152344 6.60393 0.230208 6.57244 0.325 6.57244H2.6V0.318182C2.6 0.225379 2.63047 0.149148 2.69141 0.0894886C2.75234 0.0298295 2.83021 0 2.925 0H8.39922C9.75339 0 10.8587 0.404356 11.7152 1.21307C12.5717 2.02178 13 3.06581 13 4.34517Z" fill="#313131"/>
</svg>
