<svg width="25" height="24" viewBox="0 0 25 24" fill="none" xmlns="http://www.w3.org/2000/svg">
<g clip-path="url(#clip0_34_15)">
<path fill-rule="evenodd" clip-rule="evenodd" d="M2.17825 3C1.71561 3 1.27191 3.18437 0.944766 3.51256C0.617624 3.84075 0.433838 4.28587 0.433838 4.75L0.433838 18.75C0.433838 19.716 1.21534 20.5 2.17825 20.5H22.6129C23.0755 20.5 23.5192 20.3156 23.8463 19.9874C24.1735 19.6592 24.3573 19.2141 24.3573 18.75V4.75C24.3573 4.28587 24.1735 3.84075 23.8463 3.51256C23.5192 3.18437 23.0755 3 22.6129 3H2.17825ZM1.92905 4.75C1.92905 4.6837 1.95531 4.62011 2.00204 4.57322C2.04878 4.52634 2.11216 4.5 2.17825 4.5H22.6129C22.6789 4.5 22.7423 4.52634 22.7891 4.57322C22.8358 4.62011 22.8621 4.6837 22.8621 4.75V5.602L12.5351 12.602C12.4939 12.6299 12.4453 12.6449 12.3956 12.6449C12.3458 12.6449 12.2972 12.6299 12.256 12.602L1.92905 5.602V4.75ZM1.92905 7.412V18.75C1.92905 18.888 2.0407 19 2.17825 19H22.6129C22.6789 19 22.7423 18.9737 22.7891 18.9268C22.8358 18.8799 22.8621 18.8163 22.8621 18.75V7.412L13.3724 13.845C12.7823 14.245 12.0088 14.245 11.4187 13.845L1.92905 7.412Z" fill="#F2F5F5"/>
</g>
<defs>
<clipPath id="clip0_34_15">
<rect width="23.9234" height="24" fill="white" transform="translate(0.433838)"/>
</clipPath>
</defs>
</svg>
