<svg width="37" height="26" viewBox="0 0 37 26" fill="none" xmlns="http://www.w3.org/2000/svg">
<path d="M8.54199 1H26.9572C27.2334 1 27.4572 1.22386 27.4572 1.5V4.75M27.4572 4.75H32.0058C32.2074 4.75 32.3893 4.87105 32.4671 5.05701L35.9996 13.5M27.4572 4.75V13.5M35.9996 13.5H27.4572M35.9996 13.5V21.75C35.9996 22.0261 35.7758 22.25 35.4996 22.25H31.1183M27.4572 13.5V17.875M23.7962 22.25H12.203" stroke="black"/>
<path d="M31.2289 21.625C31.2289 23.7765 29.5292 25.5 27.4577 25.5C25.3862 25.5 23.6865 23.7765 23.6865 21.625C23.6865 19.4735 25.3862 17.75 27.4577 17.75C29.5292 17.75 31.2289 19.4735 31.2289 21.625Z" stroke="black"/>
<path d="M12.9232 21.625C12.9232 23.7765 11.2236 25.5 9.15205 25.5C7.08053 25.5 5.38086 23.7765 5.38086 21.625C5.38086 19.4735 7.08053 17.75 9.15205 17.75C11.2236 17.75 12.9232 19.4735 12.9232 21.625Z" stroke="black"/>
<rect x="4.88086" y="7.25" width="10.9831" height="1.25" fill="black"/>
<rect y="12.25" width="10.9831" height="1.25" fill="black"/>
</svg>
