<svg width="183" height="183" viewBox="0 0 183 183" fill="none" xmlns="http://www.w3.org/2000/svg">
<g opacity="0.2" clip-path="url(#clip0_32_63)">
<path d="M147.258 48.6094C147.258 50.5822 148.859 52.1836 150.832 52.1836C152.805 52.1836 154.406 50.5822 154.406 48.6094C154.406 46.6366 152.805 45.0352 150.832 45.0352C148.859 45.0352 147.258 46.6366 147.258 48.6094Z" fill="#E4E4E2"/>
<path d="M161.555 91.5001C161.555 96.0782 161.095 100.648 160.191 105.082C159.795 107.016 161.044 108.903 162.977 109.299C163.219 109.349 163.459 109.373 163.696 109.373C165.359 109.373 166.849 108.204 167.195 106.512C168.196 101.607 168.703 96.5571 168.703 91.5001C168.703 80.2455 166.262 69.4153 161.447 59.3098C160.598 57.5282 158.466 56.7715 156.683 57.6204C154.9 58.4693 154.145 60.6026 154.994 62.3856C159.347 71.5222 161.555 81.3178 161.555 91.5001Z" fill="#E4E4E2"/>
<path d="M109.371 123.668H105.797V77.2031C105.797 75.2289 104.197 73.6289 102.223 73.6289H73.6289C71.6547 73.6289 70.0547 75.2289 70.0547 77.2031V91.5C70.0547 93.4742 71.6547 95.0742 73.6289 95.0742H77.2031V123.668H73.6289C71.6547 123.668 70.0547 125.268 70.0547 127.242V141.539C70.0547 143.513 71.6547 145.113 73.6289 145.113H109.371C111.345 145.113 112.945 143.513 112.945 141.539V127.242C112.945 125.268 111.345 123.668 109.371 123.668ZM105.797 137.965H77.2031V130.816H80.7773C82.7515 130.816 84.3516 129.216 84.3516 127.242V91.5C84.3516 89.5258 82.7515 87.9258 80.7773 87.9258H77.2031V80.7773H98.6484V127.242C98.6484 129.216 100.25 130.816 102.223 130.816H105.797V137.965Z" fill="#E4E4E2"/>
<path d="M91.5 66.4805C99.3828 66.4805 105.797 60.0664 105.797 52.1836C105.797 44.3008 99.3828 37.8867 91.5 37.8867C83.6172 37.8867 77.2031 44.3008 77.2031 52.1836C77.2031 60.0664 83.6172 66.4805 91.5 66.4805ZM91.5 45.0352C95.4414 45.0352 98.6484 48.2422 98.6484 52.1836C98.6484 56.125 95.4414 59.332 91.5 59.332C87.5586 59.332 84.3516 56.125 84.3516 52.1836C84.3516 48.2422 87.5586 45.0352 91.5 45.0352Z" fill="#E4E4E2"/>
<path d="M91.4996 0C42.1838 0 -0.000332417 42.1046 -0.000332417 91.5C-0.000332417 108.373 4.83463 126.317 12.9869 139.889L0.182567 178.296C-0.244664 179.579 0.089023 180.996 1.0468 181.953C2.00877 182.915 3.42729 183.243 4.70479 182.816L43.1123 170.013C56.6831 178.166 74.6268 183 91.4996 183C140.828 183 183 140.89 183 91.5C183 42.1716 140.891 0 91.4996 0V0ZM91.4996 175.852C75.3137 175.852 58.11 171.075 45.4788 163.075C44.5839 162.508 43.4683 162.359 42.4351 162.704L9.22562 173.774L20.2959 140.565C20.6366 139.545 20.4998 138.428 19.9245 137.521C11.9244 124.891 7.1481 107.686 7.1481 91.5C7.1481 45.7765 45.7762 7.14844 91.4996 7.14844C137.223 7.14844 175.851 45.7765 175.851 91.5C175.851 137.223 137.223 175.852 91.4996 175.852Z" fill="#E4E4E2"/>
</g>
<defs>
<clipPath id="clip0_32_63">
<rect width="183" height="183" fill="white"/>
</clipPath>
</defs>
</svg>
