<svg width="33" height="20" viewBox="0 0 33 20" fill="none" xmlns="http://www.w3.org/2000/svg">
<path d="M16.5223 17.1404C18.4706 15.3455 19.7011 12.7814 19.7011 9.96086C19.7011 7.08907 18.4706 4.52497 16.5223 2.78138C14.7791 1.24291 12.5232 0.268555 10.011 0.268555C4.62754 0.268555 0.269531 4.62753 0.269531 9.96086C0.269531 15.3455 4.62754 19.7045 10.011 19.7045C12.5232 19.6532 14.7791 18.6788 16.5223 17.1404Z" fill="#3362AB"/>
<path d="M16.5225 17.1402C18.4707 15.3454 19.7012 12.7812 19.7012 9.96074C19.7012 7.08894 18.4707 4.52484 16.5225 2.78125" fill="#3362AB"/>
<path d="M16.5225 17.1402C18.4707 15.3454 19.7012 12.7812 19.7012 9.96074C19.7012 7.08894 18.4707 4.52484 16.5225 2.78125" stroke="#3362AB" stroke-width="0.3097"/>
<path d="M23.0339 0.217285C20.5216 0.217285 18.2145 1.19164 16.5225 2.7301C16.1636 3.0378 15.856 3.39677 15.5484 3.75574H17.4967C17.753 4.06344 18.0094 4.42241 18.2145 4.78139H14.7793C14.5742 5.08908 14.3692 5.44805 14.2153 5.80703H18.7784C18.9322 6.166 19.0861 6.47369 19.1886 6.83267H13.8052C13.7026 7.19164 13.6001 7.49933 13.4976 7.85831H19.445C19.5988 8.52498 19.65 9.19164 19.65 9.90959C19.65 10.9865 19.4962 12.0122 19.1373 12.9865H13.7539C13.8565 13.3455 14.0103 13.7045 14.1641 14.0122H18.7272C18.5733 14.3711 18.3683 14.7301 18.1632 15.0378H14.7281C14.9331 15.3968 15.1895 15.7557 15.4458 16.0634H17.3941C17.0865 16.4224 16.7789 16.7814 16.42 17.0891C18.1632 18.6275 20.4191 19.6019 22.9314 19.6019C28.3148 19.6019 32.6215 15.2429 32.6215 9.85831C32.7753 4.57626 28.4173 0.217285 23.0339 0.217285Z" fill="#C9191B"/>
<path d="M8.78038 12.32H7.54989L8.26767 8.52518L6.62702 12.32H5.55033L5.34525 8.57646L4.62745 12.32H3.55078L4.47365 7.39697H6.37067L6.4732 10.4739L7.80624 7.39697H9.75452L8.78038 12.32Z" fill="white"/>
<path d="M22.3159 12.32C22.0083 12.4226 21.7007 12.4739 21.4444 12.4739C20.8291 12.4739 20.4702 12.1662 20.4702 11.6021C20.4702 11.4995 20.4702 11.3457 20.5215 11.2431L20.5727 10.8329L20.624 10.5252L21.188 7.44824H22.3672L22.2134 8.37132H22.8287L22.6748 9.34568H22.0596L21.752 11.038C21.752 11.0893 21.752 11.1918 21.752 11.1918C21.752 11.397 21.9058 11.4995 22.1621 11.4995C22.316 11.4995 22.4185 11.4995 22.4698 11.4482L22.3159 12.32Z" fill="white"/>
<path d="M25.8023 8.37061C25.6998 8.31933 25.6998 8.31934 25.6485 8.31934C25.5972 8.31934 25.546 8.31934 25.546 8.31934C25.4947 8.31934 25.4434 8.31934 25.3921 8.31934C24.982 8.31934 24.7256 8.47318 24.3155 8.986L24.418 8.37061H23.4439L22.7261 12.3706H23.9566C24.3667 9.90908 24.5718 9.49882 25.1358 9.49882C25.1871 9.49882 25.2383 9.49882 25.2896 9.49882L25.4434 9.5501L25.8023 8.37061Z" fill="white"/>
<path d="M17.4963 9.60189C17.4963 10.1147 17.804 10.4737 18.4192 10.7301C18.9319 10.9352 18.9832 10.9865 18.9832 11.1916C18.9832 11.448 18.7781 11.5506 18.2654 11.5506C17.9065 11.5506 17.5476 11.4993 17.1887 11.3968L17.0349 12.3198H17.0862L17.2913 12.3711C17.3425 12.3711 17.4964 12.4224 17.5989 12.4224C17.9065 12.4224 18.1116 12.4737 18.2654 12.4737C19.5472 12.4737 20.1624 12.0634 20.1624 11.1404C20.1624 10.5763 19.9061 10.2686 19.2908 10.0121C18.7781 9.80701 18.7268 9.75573 18.7268 9.55061C18.7268 9.34548 18.9319 9.24291 19.3421 9.24291C19.5984 9.24291 19.9061 9.24291 20.2137 9.2942L20.3675 8.37112C20.0599 8.31984 19.5984 8.26855 19.2908 8.26855C17.9578 8.26855 17.4963 8.88394 17.4963 9.60189Z" fill="white"/>
<path d="M11.8565 10.5762C11.7027 10.5762 11.6514 10.5762 11.6001 10.5762C10.9336 10.5762 10.5747 10.7814 10.5747 11.1916C10.5747 11.448 10.7285 11.6019 10.9849 11.6019C11.4463 11.5506 11.8052 11.1403 11.8565 10.5762ZM12.7281 12.3198H11.7027L11.754 11.9096C11.4463 12.2173 11.0362 12.3711 10.4722 12.3711C9.80568 12.3711 9.39551 11.9096 9.39551 11.2942C9.39551 10.3198 10.1646 9.75573 11.4976 9.75573C11.6514 9.75573 11.8052 9.75573 12.0103 9.80702C12.0616 9.65317 12.0616 9.60189 12.0616 9.55061C12.0616 9.2942 11.8565 9.19163 11.2925 9.19163C10.9336 9.19163 10.5747 9.24291 10.3184 9.2942L10.1646 9.34548L10.062 9.39676L10.2158 8.47368C10.8311 8.31983 11.19 8.26855 11.6514 8.26855C12.6768 8.26855 13.2408 8.67881 13.2408 9.44804C13.2408 9.65317 13.2408 9.80702 13.1383 10.2173L12.8819 11.6532L12.8306 11.9096L12.7794 12.1147V12.2686L12.7281 12.3198Z" fill="white"/>
<path d="M16.0611 9.85881C16.0611 9.75624 16.0611 9.70495 16.0611 9.65367C16.0611 9.34598 15.856 9.14085 15.4971 9.14085C15.087 9.14085 14.8306 9.39727 14.7281 9.85881H16.0611ZM16.6763 12.2691C16.2662 12.3716 15.856 12.4229 15.4458 12.4229C14.1128 12.4229 13.395 11.8075 13.395 10.628C13.395 9.24342 14.2666 8.21777 15.4971 8.21777C16.4713 8.21777 17.1378 8.78188 17.1378 9.65367C17.1378 9.96136 17.0865 10.2178 16.984 10.628H14.5743C14.5743 10.6793 14.5743 10.7306 14.5743 10.7306C14.5743 11.1921 14.9331 11.4485 15.6509 11.4485C16.0611 11.4485 16.4713 11.346 16.9327 11.1921L16.6763 12.2691Z" fill="white"/>
<path d="M28.3145 10.0121C28.3145 9.60188 28.1607 9.19163 27.648 9.19163C27.0328 9.19163 26.6738 9.90958 26.6738 10.5762C26.6738 11.1403 26.9302 11.4993 27.3916 11.4993C27.648 11.4993 28.212 11.1403 28.3145 10.525C28.3145 10.3711 28.3145 10.166 28.3145 10.0121ZM29.5963 10.525C29.3912 11.8583 28.4683 12.4737 27.2378 12.4737C25.8535 12.4737 25.3408 11.6532 25.3408 10.6275C25.3408 9.19163 26.2637 8.26855 27.6993 8.26855C28.981 8.26855 29.5963 9.03779 29.5963 10.0634C29.6475 10.2686 29.6475 10.2686 29.5963 10.525Z" fill="white"/>
</svg>
