<svg width="34" height="20" viewBox="0 0 34 20" fill="none" xmlns="http://www.w3.org/2000/svg">
<path d="M33.3259 10C33.3259 15.4872 28.8653 20 23.3281 20C17.8421 20 13.3303 15.4872 13.3303 10C13.3303 4.51282 17.7909 0 23.2768 0C28.8653 0 33.3259 4.51282 33.3259 10Z" fill="#F9B50B"/>
<path d="M19.9443 10.0513C19.9443 9.33333 19.8417 8.61539 19.7392 7.94872H13.5867C13.638 7.58974 13.7405 7.28205 13.8431 6.8718H19.329C19.2265 6.51282 19.0727 6.15385 18.9189 5.79487H14.2532C14.4071 5.4359 14.6121 5.12821 14.8172 4.71795H18.3549C18.1498 4.35897 17.8935 4 17.5858 3.64103H15.6376C15.9452 3.28205 16.2528 2.97436 16.663 2.61538C14.9198 0.974359 12.5613 0 9.94651 0C4.51182 0.153846 0 4.51282 0 10C0 15.4872 4.46055 20 9.99778 20C12.6126 20 14.9198 18.9744 16.7142 17.3846C17.0731 17.0769 17.3808 16.7179 17.7396 16.3077H15.6888C15.4325 16 15.1761 15.641 14.971 15.2821H18.4574C18.6625 14.9744 18.8676 14.6154 19.0214 14.2051H14.3558C14.202 13.8974 14.0482 13.5385 13.9456 13.1282H19.4316C19.7392 12.2051 19.9443 11.1795 19.9443 10.0513Z" fill="#C8191C"/>
<path d="M13.5354 12.5641L13.6892 11.6411C13.638 11.6411 13.5354 11.6923 13.4329 11.6923C13.074 11.6923 13.0227 11.4872 13.074 11.3846L13.3816 9.53849H13.9456L14.0994 8.51285H13.5867L13.6892 7.89746H12.6126C12.6126 7.89746 11.9973 11.3846 11.9973 11.7949C11.9973 12.4103 12.3562 12.718 12.8689 12.718C13.1765 12.718 13.4329 12.6154 13.5354 12.5641Z" fill="white"/>
<path d="M13.8945 10.8718C13.8945 12.359 14.9199 12.718 15.7403 12.718C16.5093 12.718 16.8682 12.5642 16.8682 12.5642L17.0733 11.5385C17.0733 11.5385 16.5093 11.7949 15.9454 11.7949C14.7661 11.7949 14.9712 10.9231 14.9712 10.9231H17.1246C17.1246 10.9231 17.2784 10.2565 17.2784 9.94877C17.2784 9.2821 16.9195 8.4103 15.7403 8.4103C14.7149 8.35902 13.8945 9.53851 13.8945 10.8718ZM15.7403 9.33338C16.3043 9.33338 16.2017 10 16.2017 10.0513H15.0225C15.0738 10 15.1763 9.33338 15.7403 9.33338Z" fill="white"/>
<path d="M22.4566 12.5643L22.6617 11.3848C22.6617 11.3848 22.149 11.6412 21.7388 11.6412C21.021 11.6412 20.6621 11.0771 20.6621 10.4104C20.6621 9.12835 21.2774 8.46169 22.0464 8.46169C22.5591 8.46169 23.0206 8.76938 23.0206 8.76938L23.1744 7.64118C23.1744 7.64118 22.5591 7.38477 21.9439 7.38477C20.7134 7.38477 19.5342 8.46169 19.5342 10.4617C19.5342 11.795 20.1494 12.6668 21.4312 12.6668C21.8926 12.7181 22.4566 12.5643 22.4566 12.5643Z" fill="white"/>
<path d="M7.74199 8.35938C7.0242 8.35938 6.46022 8.5645 6.46022 8.5645L6.30641 9.48758C6.30641 9.48758 6.76784 9.28245 7.48563 9.28245C7.84453 9.28245 8.15215 9.33373 8.15215 9.64143C8.15215 9.84655 8.10088 9.89784 8.10088 9.89784H7.63945C6.71657 9.89784 5.74243 10.2568 5.74243 11.4876C5.74243 12.4619 6.35768 12.6671 6.76784 12.6671C7.48563 12.6671 7.84453 12.2055 7.8958 12.2055L7.84453 12.6158H8.71613L9.12629 9.69271C9.12629 8.41066 8.10088 8.35938 7.74199 8.35938ZM7.94707 10.7183C7.94707 10.8722 7.84453 11.744 7.22928 11.744C6.92166 11.744 6.81912 11.4876 6.81912 11.3337C6.81912 11.0773 6.97293 10.7183 7.79326 10.7183C7.8958 10.7183 7.94707 10.7183 7.94707 10.7183Z" fill="white"/>
<path d="M10.1514 12.6666C10.4077 12.6666 11.7408 12.7179 11.7408 11.282C11.7408 9.94864 10.459 10.2051 10.459 9.69223C10.459 9.43582 10.6641 9.33326 11.023 9.33326C11.1768 9.33326 11.7408 9.38454 11.7408 9.38454L11.8946 8.41018C11.8946 8.41018 11.5357 8.30762 10.8692 8.30762C10.1001 8.30762 9.27979 8.61531 9.27979 9.69223C9.27979 10.923 10.6128 10.8204 10.6128 11.282C10.6128 11.5897 10.2539 11.641 9.99758 11.641C9.53615 11.641 9.02344 11.4871 9.02344 11.4871L8.86963 12.4615C8.97217 12.564 9.27979 12.6666 10.1514 12.6666Z" fill="white"/>
<path d="M31.275 7.53809L31.0699 8.97398C31.0699 8.97398 30.6597 8.46116 30.0445 8.46116C29.0703 8.46116 28.25 9.64065 28.25 11.0253C28.25 11.8971 28.6602 12.7689 29.583 12.7689C30.1983 12.7689 30.6085 12.3586 30.6085 12.3586L30.5572 12.7176H31.6339L32.4029 7.64065L31.275 7.53809ZM30.7623 10.3073C30.7623 10.8714 30.5059 11.6407 29.8907 11.6407C29.5318 11.6407 29.3267 11.333 29.3267 10.7689C29.3267 9.89706 29.6856 9.38424 30.1983 9.38424C30.5572 9.43552 30.7623 9.69193 30.7623 10.3073Z" fill="white"/>
<path d="M1.94826 12.615L2.56351 8.82014L2.66605 12.615H3.38384L4.76815 8.82014L4.20417 12.615H5.33213L6.20373 7.53809H4.46053L3.38384 10.6663L3.33257 7.53809H1.79445L0.922852 12.615H1.94826Z" fill="white"/>
<path d="M18.355 12.6153C18.6626 10.8717 18.7139 9.43578 19.483 9.69219C19.5855 9.02553 19.7393 8.71784 19.8419 8.46143H19.6368C19.1753 8.46143 18.7652 9.07681 18.7652 9.07681L18.8677 8.51271H17.8423L17.1758 12.6153H18.355Z" fill="white"/>
<path d="M24.9175 8.35938C24.1997 8.35938 23.6358 8.5645 23.6358 8.5645L23.4819 9.48758C23.4819 9.48758 23.9434 9.28245 24.6612 9.28245C25.0201 9.28245 25.3277 9.33373 25.3277 9.64143C25.3277 9.84655 25.2764 9.89784 25.2764 9.89784H24.815C23.8921 9.89784 22.918 10.2568 22.918 11.4876C22.918 12.4619 23.5332 12.6671 23.9434 12.6671C24.6612 12.6671 25.0201 12.2055 25.0713 12.2055L25.0201 12.6158H25.9942L26.4044 9.69271C26.4044 8.41066 25.2764 8.35938 24.9175 8.35938ZM25.1739 10.7183C25.1739 10.8722 25.0713 11.744 24.4561 11.744C24.1485 11.744 24.0459 11.4876 24.0459 11.3337C24.0459 11.0773 24.1997 10.7183 25.0201 10.7183C25.1226 10.7183 25.1226 10.7183 25.1739 10.7183Z" fill="white"/>
<path d="M27.2246 12.6153C27.5323 10.8717 27.5835 9.43578 28.3526 9.69219C28.4551 9.02553 28.6089 8.71784 28.7115 8.46143H28.5064C28.045 8.46143 27.6348 9.07681 27.6348 9.07681L27.7373 8.51271H26.7119L26.0454 12.6153H27.2246Z" fill="white"/>
</svg>
