<svg width="39" height="12" viewBox="0 0 39 12" fill="none" xmlns="http://www.w3.org/2000/svg">
<path d="M34.137 0H26.8118C27.2385 2.41857 29.5854 4.69488 32.1457 4.69488H37.9774C38.0485 4.48147 38.0485 4.1258 38.0485 3.91239C38.0485 1.77836 36.2705 0 34.137 0Z" fill="url(#paint0_linear_1941_141)"/>
<path d="M27.4519 5.12183V11.026H31.0078V7.89607H34.1371C35.8439 7.89607 37.3374 6.68678 37.8352 5.12183H27.4519Z" fill="#4FAD50"/>
<path d="M14.9351 0V10.9547H18.0643C18.0643 10.9547 18.8466 10.9547 19.2733 10.1722C21.4069 5.9753 22.0469 4.69488 22.0469 4.69488H22.4736V10.9547H26.0296V0H22.9004C22.9004 0 22.118 0.0711388 21.6913 0.782483C19.9134 4.41034 18.9177 6.25983 18.9177 6.25983H18.491V0H14.9351Z" fill="#4FAD50"/>
<path d="M0 11.0253V0.0705566H3.55593C3.55593 0.0705566 4.5516 0.0705544 5.12055 1.63551C6.54292 5.76131 6.68517 6.33039 6.68517 6.33039C6.68517 6.33039 6.96963 5.3345 8.24976 1.63551C8.81871 0.0705544 9.81438 0.0705566 9.81438 0.0705566H13.3703V11.0253H9.81438V5.12111H9.38767L7.39635 11.0253H5.83174L3.84042 5.12111H3.41371V11.0253H0Z" fill="#4FAD50"/>
<defs>
<linearGradient id="paint0_linear_1941_141" x1="26.7991" y1="2.38109" x2="38.0233" y2="2.38109" gradientUnits="userSpaceOnUse">
<stop stop-color="#27B1E6"/>
<stop offset="1" stop-color="#148ACA"/>
</linearGradient>
</defs>
</svg>
