<svg width="20" height="24" viewBox="0 0 20 24" fill="none" xmlns="http://www.w3.org/2000/svg">
<path d="M15.232 13.784C12.608 13.784 10.496 15.928 10.496 18.552C10.496 20.568 11.776 22.328 13.568 23C14.08 23.192 14.656 23.288 15.232 23.288C15.84 23.288 16.384 23.192 16.928 23C18.72 22.328 20 20.568 20 18.552C20 15.928 17.856 13.784 15.232 13.784ZM15.232 20.632C14.08 20.632 13.152 19.704 13.152 18.552C13.152 17.4 14.08 16.472 15.232 16.472C16.384 16.472 17.312 17.4 17.312 18.552C17.312 19.704 16.384 20.632 15.232 20.632ZM6.912 0.759998C6.432 0.567999 5.92 0.471998 5.376 0.471998C4.832 0.471998 4.32 0.567999 3.84 0.759998C1.952 1.4 0.64 3.16 0.64 5.24C0.64 7.864 2.752 10.008 5.376 10.008C8 10.008 10.144 7.864 10.144 5.24C10.144 3.16 8.8 1.4 6.912 0.759998ZM5.376 7.32C4.224 7.32 3.296 6.392 3.296 5.24C3.296 4.088 4.224 3.16 5.376 3.16C6.528 3.16 7.456 4.088 7.456 5.24C7.456 6.392 6.528 7.32 5.376 7.32ZM16.512 0.759998L0.832 23H4.128L19.776 0.759998H16.512Z" fill="white"/>
</svg>
