<svg width="15" height="16" viewBox="0 0 15 16" fill="none" xmlns="http://www.w3.org/2000/svg">
<path fill-rule="evenodd" clip-rule="evenodd" d="M3.01053 1.2716C3.2897 1.13549 3.58905 1.03999 3.84565 1.039C4.01475 1.03835 4.17584 1.09108 4.30142 1.14439C4.43578 1.20142 4.57513 1.27908 4.7125 1.3677C4.98776 1.54526 5.28798 1.78814 5.57241 2.06433C6.12181 2.59781 6.70549 3.34649 6.86269 4.08219C6.92944 4.39463 6.86265 4.71265 6.69378 4.97019C6.59017 5.1282 6.45751 5.29574 6.33246 5.45169C6.31447 5.47412 6.29655 5.49642 6.2787 5.51863C6.16701 5.65763 6.0585 5.79266 5.9577 5.92962C5.84083 6.08841 5.7474 6.23257 5.6844 6.36187C5.62001 6.49402 5.60284 6.57971 5.60303 6.62835C5.60391 6.85675 5.74495 7.30779 6.05641 7.86924C6.35615 8.40955 6.77355 8.97982 7.23789 9.43492C7.72738 9.91466 8.16041 10.2707 8.54427 10.5043C8.90234 10.7222 9.18884 10.8159 9.41881 10.8275C9.42952 10.8185 9.44408 10.8054 9.46277 10.7868C9.50553 10.7444 9.55253 10.6915 9.61695 10.6182L9.62561 10.6084C9.68468 10.5412 9.7554 10.4607 9.83356 10.3795C10.1777 10.0217 10.6958 9.61906 11.5515 9.61576C12.2203 9.61318 12.9047 9.96362 13.4459 10.4281C13.9955 10.8998 14.4704 11.55 14.6877 12.2606C14.8723 12.8643 14.5776 13.3802 14.2286 13.737C13.8771 14.0964 13.3842 14.3932 12.9052 14.6227C12.0989 15.0091 11.2019 15.147 10.3279 15.0663C8.77318 14.9228 6.60577 14.3138 4.03798 11.8998C4.02955 11.8919 4.02139 11.8837 4.01353 11.8752C2.55516 10.3037 1.76038 8.97241 1.34589 7.75368C0.930717 6.5329 0.911 5.46351 0.943668 4.4576C0.980831 3.31325 1.50859 2.46095 2.10465 1.9019C2.40122 1.62374 2.7186 1.41394 3.01053 1.2716ZM2.80071 2.64402C2.36248 3.05504 1.98742 3.6648 1.9606 4.49063C1.92929 5.45489 1.95305 6.37891 2.30918 7.42607C2.66499 8.47228 3.36636 9.67952 4.74752 11.1704C7.14078 13.4156 9.08996 13.9302 10.4214 14.0531C11.1288 14.1184 11.8395 14.0052 12.4654 13.7052C12.8998 13.497 13.2704 13.2615 13.5012 13.0255C13.7345 12.787 13.7411 12.6444 13.7147 12.5581C13.564 12.0652 13.2154 11.571 12.7833 11.2002C12.3428 10.8222 11.8874 10.6319 11.5554 10.6332C11.0766 10.6351 10.8043 10.8379 10.5668 11.0848C10.5048 11.1493 10.4475 11.2145 10.3853 11.2852L10.3811 11.2901C10.321 11.3584 10.251 11.438 10.1797 11.5088C10.0508 11.6368 9.81494 11.8448 9.47503 11.8462C8.97967 11.8481 8.4901 11.6624 8.01536 11.3735C7.53872 11.0835 7.04301 10.6686 6.52571 10.1616C5.98326 9.62993 5.5083 8.97862 5.16668 8.36282C4.8368 7.76817 4.58748 7.12862 4.58557 6.63227C4.58455 6.36799 4.66938 6.12216 4.76972 5.91622C4.87144 5.70744 5.00545 5.50693 5.13825 5.3265C5.25295 5.17066 5.37651 5.01695 5.48735 4.87907C5.5048 4.85736 5.52194 4.83604 5.53867 4.81517C5.66724 4.65483 5.76994 4.52356 5.84292 4.41226C5.86914 4.37227 5.87526 4.33028 5.86767 4.29479C5.7753 3.86245 5.3738 3.2897 4.8636 2.79428C4.61823 2.55603 4.37005 2.35759 4.16096 2.22271C4.05616 2.15511 3.96934 2.10877 3.90388 2.08098C3.86752 2.06555 3.846 2.05938 3.8373 2.05709C3.78642 2.06149 3.653 2.09033 3.45643 2.18616C3.25392 2.2849 3.02129 2.43714 2.80071 2.64402Z" fill="#313131"/>
</svg>
