<svg width="20" height="24" viewBox="0 0 20 24" fill="none" xmlns="http://www.w3.org/2000/svg">
<path d="M10.1961 0.25C15.5639 0.25 19.915 4.615 19.915 10C19.915 14.12 17.0292 18.61 11.3324 23.518C11.0157 23.791 10.6118 23.9409 10.1942 23.9405C9.77662 23.9402 9.37301 23.7895 9.05672 23.516L8.67993 23.188C3.23535 18.408 0.477173 14.028 0.477173 10C0.477173 4.615 4.82825 0.25 10.1961 0.25ZM10.1961 1.75C8.01502 1.75 5.92329 2.61919 4.38105 4.16637C2.83881 5.71354 1.97239 7.81196 1.97239 10C1.97239 13.502 4.51226 17.537 9.66179 22.057L10.0336 22.38C10.0788 22.419 10.1365 22.4404 10.1961 22.4404C10.2557 22.4404 10.3134 22.419 10.3586 22.38C15.7573 17.728 18.4198 13.585 18.4198 10C18.4198 8.91659 18.2071 7.8438 17.7938 6.84286C17.3805 5.84193 16.7747 4.93245 16.0111 4.16637C15.2475 3.40029 14.3409 2.7926 13.3432 2.37799C12.3454 1.96339 11.276 1.75 10.1961 1.75ZM10.1961 6.25C11.1875 6.25 12.1383 6.64509 12.8393 7.34835C13.5403 8.05161 13.9341 9.00544 13.9341 10C13.9341 10.9946 13.5403 11.9484 12.8393 12.6517C12.1383 13.3549 11.1875 13.75 10.1961 13.75C9.20469 13.75 8.2539 13.3549 7.55289 12.6517C6.85187 11.9484 6.45804 10.9946 6.45804 10C6.45804 9.00544 6.85187 8.05161 7.55289 7.34835C8.2539 6.64509 9.20469 6.25 10.1961 6.25ZM10.1961 7.75C9.60124 7.75 9.03077 7.98705 8.61016 8.40901C8.18955 8.83097 7.95325 9.40326 7.95325 10C7.95325 10.5967 8.18955 11.169 8.61016 11.591C9.03077 12.0129 9.60124 12.25 10.1961 12.25C10.7909 12.25 11.3614 12.0129 11.782 11.591C12.2026 11.169 12.4389 10.5967 12.4389 10C12.4389 9.40326 12.2026 8.83097 11.782 8.40901C11.3614 7.98705 10.7909 7.75 10.1961 7.75Z" fill="#F2F5F5"/>
</svg>
