<svg width="170" height="170" viewBox="0 0 170 170" fill="none" xmlns="http://www.w3.org/2000/svg">
<path d="M161.907 85C166.377 85 170.04 88.6317 169.615 93.0811C168.135 108.58 162.418 123.433 153.019 135.975C141.996 150.683 126.502 161.423 108.861 166.582C91.2189 171.742 72.3801 171.044 55.1686 164.593C37.957 158.142 23.3003 146.286 13.3959 130.802C3.49144 115.318 -1.12701 97.0411 0.23299 78.7108C1.59299 60.3805 8.85814 42.9849 20.9392 29.1322C33.0202 15.2795 49.2662 5.71607 67.2412 1.87585C82.5687 -1.39875 98.4491 -0.36148 113.141 4.79337C117.359 6.27317 119.12 11.1217 117.246 15.1795C115.372 19.2373 110.572 20.9577 106.322 19.5727C94.8403 15.8307 82.5257 15.1617 70.6229 17.7047C56.0707 20.8136 42.9184 28.5559 33.1379 39.7707C23.3574 50.9856 17.4757 65.0686 16.3746 79.9084C15.2736 94.7482 19.0126 109.545 27.031 122.08C35.0494 134.616 46.9151 144.214 60.8492 149.437C74.7832 154.659 90.0347 155.224 104.317 151.047C118.599 146.87 131.143 138.176 140.066 126.268C147.366 116.528 151.922 105.068 153.339 93.0746C153.863 88.6358 157.437 85 161.907 85Z" fill="url(#paint0_linear_749_2100)"/>
<defs>
<linearGradient id="paint0_linear_749_2100" x1="233.853" y1="371.69" x2="-20.3696" y2="356.053" gradientUnits="userSpaceOnUse">
<stop stop-color="#896D4D"/>
<stop offset="1" stop-color="#CDB79C"/>
</linearGradient>
</defs>
</svg>
