<svg width="21" height="21" viewBox="0 0 21 21" fill="none" xmlns="http://www.w3.org/2000/svg">
<path d="M4.66683 19.8335C4.51212 19.8335 4.36375 19.772 4.25435 19.6626C4.14495 19.5532 4.0835 19.4048 4.0835 19.2501V1.70345C4.0835 1.54874 4.14495 1.40037 4.25435 1.29097C4.36375 1.18158 4.51212 1.12012 4.66683 1.12012C4.82154 1.12012 4.96991 1.18158 5.07931 1.29097C5.1887 1.40037 5.25016 1.54874 5.25016 1.70345V19.2501C5.25016 19.4048 5.1887 19.5532 5.07931 19.6626C4.96991 19.772 4.82154 19.8335 4.66683 19.8335Z" fill="#AFAFAF"/>
<path d="M9.91683 19.7868C9.76212 19.7868 9.61375 19.7253 9.50435 19.6159C9.39495 19.5065 9.3335 19.3581 9.3335 19.2034V5.30843C9.3335 5.15372 9.39495 5.00535 9.50435 4.89595C9.61375 4.78656 9.76212 4.7251 9.91683 4.7251C10.0715 4.7251 10.2199 4.78656 10.3293 4.89595C10.4387 5.00535 10.5002 5.15372 10.5002 5.30843V19.2034C10.5002 19.3581 10.4387 19.5065 10.3293 19.6159C10.2199 19.7253 10.0715 19.7868 9.91683 19.7868Z" fill="#AFAFAF"/>
<path d="M15.1668 19.8332C15.0121 19.8332 14.8637 19.7717 14.7544 19.6623C14.645 19.5529 14.5835 19.4045 14.5835 19.2498V5.24984C14.5835 5.09513 14.645 4.94675 14.7544 4.83736C14.8637 4.72796 15.0121 4.6665 15.1668 4.6665C15.3215 4.6665 15.4699 4.72796 15.5793 4.83736C15.6887 4.94675 15.7502 5.09513 15.7502 5.24984V19.2498C15.7502 19.4045 15.6887 19.5529 15.5793 19.6623C15.4699 19.7717 15.3215 19.8332 15.1668 19.8332Z" fill="#AFAFAF"/>
<path d="M19.3141 10.5002H4.73079C4.57608 10.5002 4.42771 10.4387 4.31832 10.3293C4.20892 10.2199 4.14746 10.0715 4.14746 9.91683C4.14746 9.76212 4.20892 9.61375 4.31832 9.50435C4.42771 9.39495 4.57608 9.3335 4.73079 9.3335H19.3141C19.4688 9.3335 19.6172 9.39495 19.7266 9.50435C19.836 9.61375 19.8975 9.76212 19.8975 9.91683C19.8975 10.0715 19.836 10.2199 19.7266 10.3293C19.6172 10.4387 19.4688 10.5002 19.3141 10.5002Z" fill="#AFAFAF"/>
<path d="M19.3085 15.7151H4.72514C4.63913 15.7366 4.54933 15.7383 4.46257 15.7199C4.37582 15.7016 4.29439 15.6637 4.22448 15.6091C4.15457 15.5546 4.09801 15.4848 4.05911 15.4051C4.02022 15.3254 4 15.2379 4 15.1492C4 15.0605 4.02022 14.973 4.05911 14.8933C4.09801 14.8137 4.15457 14.7439 4.22448 14.6893C4.29439 14.6348 4.37582 14.5969 4.46257 14.5785C4.54933 14.5602 4.63913 14.5618 4.72514 14.5834H19.3085C19.3954 14.558 19.4871 14.5533 19.5762 14.5695C19.6653 14.5857 19.7494 14.6224 19.8218 14.6767C19.8943 14.7311 19.9531 14.8015 19.9936 14.8825C20.0341 14.9635 20.0551 15.0528 20.0551 15.1434C20.0551 15.234 20.0341 15.3233 19.9936 15.4043C19.9531 15.4853 19.8943 15.5557 19.8218 15.6101C19.7494 15.6644 19.6653 15.7011 19.5762 15.7173C19.4871 15.7335 19.3954 15.7287 19.3085 15.7034V15.7151Z" fill="#AFAFAF"/>
<path d="M19.2501 5.20339H1.75008C1.66315 5.22875 1.5715 5.23352 1.4824 5.21732C1.3933 5.20112 1.3092 5.16439 1.23675 5.11006C1.1643 5.05572 1.1055 4.98527 1.065 4.90427C1.0245 4.82327 1.00342 4.73395 1.00342 4.64339C1.00342 4.55283 1.0245 4.46352 1.065 4.38252C1.1055 4.30152 1.1643 4.23106 1.23675 4.17673C1.3092 4.12239 1.3933 4.08567 1.4824 4.06947C1.5715 4.05327 1.66315 4.05804 1.75008 4.08339H19.2501C19.3361 4.06183 19.4259 4.06017 19.5127 4.07853C19.5994 4.09689 19.6808 4.13478 19.7507 4.18933C19.8207 4.24389 19.8772 4.31366 19.9161 4.39335C19.955 4.47304 19.9752 4.56055 19.9752 4.64923C19.9752 4.7379 19.955 4.82541 19.9161 4.9051C19.8772 4.98479 19.8207 5.05456 19.7507 5.10912C19.6808 5.16367 19.5994 5.20156 19.5127 5.21992C19.4259 5.23828 19.3361 5.23662 19.2501 5.21506V5.20339Z" fill="#AFAFAF"/>
</svg>
