<svg width="21" height="20" viewBox="0 0 21 20" fill="none" xmlns="http://www.w3.org/2000/svg">
<g clip-path="url(#clip0_34_13)">
<path d="M15.9997 19.6889C15.8135 19.6884 15.6278 19.6679 15.4459 19.6278C11.9829 18.9092 8.79254 17.2242 6.24203 14.7667C3.74594 12.3039 2.01477 9.16817 1.25798 5.73895C1.16874 5.31156 1.19064 4.86834 1.32158 4.4519C1.45251 4.03547 1.68807 3.65984 2.00558 3.36117L4.22072 1.22228C4.33386 1.11494 4.46829 1.03274 4.61524 0.981049C4.76219 0.929356 4.91836 0.909331 5.07354 0.922281C5.23445 0.939122 5.38973 0.991122 5.52846 1.07463C5.66719 1.15813 5.786 1.27111 5.87653 1.40561L8.64545 5.51117C8.74928 5.67047 8.79941 5.859 8.78844 6.04902C8.77748 6.23904 8.706 6.42051 8.58453 6.56673L7.19454 8.23339C7.74813 9.46253 8.53211 10.5734 9.50381 11.5056C10.4692 12.4716 11.6103 13.2429 12.8653 13.7778L14.5875 12.4056C14.7322 12.2909 14.9082 12.2231 15.0922 12.2112C15.2762 12.1993 15.4594 12.2439 15.6176 12.3389L19.7986 15.0501C19.9421 15.136 20.0644 15.2534 20.1562 15.3935C20.248 15.5335 20.3071 15.6926 20.3289 15.8588C20.3508 16.025 20.3348 16.1941 20.2823 16.3532C20.2298 16.5124 20.1421 16.6575 20.0257 16.7778L17.8659 18.9223C17.6206 19.1672 17.3294 19.361 17.0091 19.4926C16.6889 19.6242 16.3458 19.6909 15.9997 19.6889ZM4.98494 2.02228L2.76981 4.16117C2.59118 4.32814 2.45896 4.53888 2.38614 4.77266C2.31331 5.00644 2.3024 5.25521 2.35447 5.4945C3.05817 8.71236 4.67577 11.6569 7.01179 13.9723C9.41199 16.2843 12.4143 17.8692 15.673 18.5445C15.9196 18.5962 16.1752 18.5858 16.4168 18.514C16.6585 18.4423 16.8786 18.3115 17.0574 18.1334L19.2172 15.9889L15.1801 13.3723L13.3305 14.8501C13.2596 14.9063 13.1762 14.9443 13.0874 14.9607C12.9986 14.9772 12.9071 14.9716 12.821 14.9445C11.2852 14.3768 9.89338 13.4757 8.74513 12.3056C7.55746 11.193 6.63556 9.82562 6.0482 8.30561C6.02336 8.2136 6.02253 8.11671 6.04581 8.02428C6.06908 7.93184 6.11568 7.84698 6.18111 7.77784L7.67633 5.98339L4.98494 2.02228Z" fill="#F2F5F5"/>
</g>
<defs>
<clipPath id="clip0_34_13">
<rect width="19.9362" height="20" fill="white" transform="translate(0.642822)"/>
</clipPath>
</defs>
</svg>
