<svg width="36" height="12" viewBox="0 0 36 12" fill="none" xmlns="http://www.w3.org/2000/svg">
<path d="M33.2795 0.711914H31.0748C30.4083 0.711914 29.8956 0.917042 29.588 1.58371L25.3838 11.1735H28.3575C28.3575 11.1735 28.8702 9.8914 28.9727 9.58371C29.2804 9.58371 32.2028 9.58371 32.613 9.58371C32.7155 9.94268 32.9718 11.1222 32.9718 11.1222H35.6379L33.2795 0.711914ZM29.7931 7.42986C30.0494 6.81448 30.921 4.50679 30.921 4.50679C30.921 4.55807 31.1774 3.8914 31.2799 3.53243L31.485 4.4555C31.485 4.4555 32.049 6.96833 32.1515 7.48115H29.7931V7.42986Z" fill="#3362AB"/>
<path d="M25.589 7.7371C25.589 9.89095 23.6408 11.3268 20.6158 11.3268C19.334 11.3268 18.1035 11.0704 17.437 10.7627L17.8472 8.40377L18.2061 8.55762C19.1289 8.96787 19.7442 9.12172 20.8721 9.12172C21.6925 9.12172 22.5641 8.81403 22.5641 8.09608C22.5641 7.63454 22.2052 7.32685 21.0772 6.81403C20.0005 6.30121 18.565 5.48069 18.565 3.99351C18.565 1.94223 20.5645 0.557617 23.3844 0.557617C24.4611 0.557617 25.384 0.762745 25.9479 1.01916L25.5378 3.27557L25.3327 3.07044C24.82 2.86531 24.1535 2.66018 23.1793 2.66018C22.1026 2.71146 21.5899 3.173 21.5899 3.58326C21.5899 4.0448 22.2052 4.40377 23.1793 4.86531C24.82 5.63454 25.589 6.50633 25.589 7.7371Z" fill="#3362AB"/>
<path d="M0.568848 0.813527L0.620118 0.608398H5.02939C5.64464 0.608398 6.10608 0.813527 6.25989 1.48019L7.23403 6.09558C6.25989 3.63404 4.00398 1.63404 0.568848 0.813527Z" fill="#F9B50B"/>
<path d="M13.4377 0.711438L8.97717 11.1217H5.9522L3.38867 2.40375C5.23442 3.58323 6.77253 5.42939 7.33651 6.71144L7.64414 7.78836L10.4128 0.660156H13.4377V0.711438Z" fill="#3362AB"/>
<path d="M14.6167 0.660156H17.4366L15.6422 11.1217H12.8223L14.6167 0.660156Z" fill="#3362AB"/>
</svg>
