<svg width="140" height="74" viewBox="0 0 140 74" fill="none" xmlns="http://www.w3.org/2000/svg">
<path d="M97.1155 15.6463C98.775 19.5579 99.3676 23.2324 99.3676 27.6181C99.3676 46.8204 82.536 57.2513 70.4456 57.2513C54.9179 57.2513 44.724 45.398 44.724 33.3077C44.724 21.2174 54.5623 11.2606 66.7711 11.2606C67.4823 11.2606 68.312 11.2606 69.1418 11.2606C58.1182 11.2606 49.2283 20.7432 49.2283 32.3594C49.2283 46.5834 59.6592 55.2362 70.5642 55.4733C70.6827 55.4733 70.9198 55.4733 71.0383 55.4733C82.2989 55.4733 95.1004 45.0424 95.1004 28.3293C95.1004 11.6162 82.1804 0 67.0082 0C50.2951 0 36.6638 13.6313 36.6638 30.3444C36.6638 37.3378 38.6789 44.4498 42.709 49.3096C39.3901 44.5683 38.0862 37.6934 38.0862 33.3077C38.0862 17.5428 51.0063 4.74131 67.0082 4.74131C83.0101 4.74131 93.3224 15.2907 93.3224 28.0923C93.3224 37.1007 86.2105 50.8505 70.2086 50.8505C69.7344 50.8505 69.2603 50.8505 68.6677 50.8505C66.7711 50.732 64.7561 50.2579 62.741 49.5467C57.7626 47.5316 53.1399 43.5015 51.5989 37.9305C54.4437 45.398 62.3854 49.6652 69.0232 49.7837C81.9433 49.7837 89.0553 38.9973 89.0553 29.7517C89.0553 15.0537 78.2688 6.75636 66.6526 6.75636C53.2584 6.75636 42.4719 18.6096 42.4719 33.3077C42.4719 47.5316 53.9696 61.3999 70.5642 61.3999C87.1588 61.3999 100.671 48.0057 100.671 30.4629C100.79 24.8919 99.3676 20.032 97.1155 15.6463Z" fill="#714615"/>
<path d="M63.8076 49.6651C65.8227 50.4948 67.8377 50.8504 69.7343 50.969C70.2084 50.969 70.6825 50.969 71.2752 50.969C83.7211 50.969 90.7146 42.6717 93.2037 34.73C92.0184 34.4929 90.7146 34.3744 89.5292 34.2559C87.6327 42.1976 80.8763 49.7836 70.0899 49.7836C63.452 49.6651 55.3918 45.3979 52.6656 37.9304C54.325 43.7385 58.8293 47.7686 63.8076 49.6651ZM136.705 48.0057C125.326 42.6717 113.354 38.7601 101.264 36.2709C100.79 38.6416 100.197 40.8937 99.3675 43.0273C98.6563 42.4346 97.9451 41.842 97.3524 41.1308C98.1821 39.4713 98.8933 37.8118 99.3675 35.9153C98.0636 35.6783 96.7597 35.4412 95.4559 35.2041C92.6111 48.0057 81.8246 55.7103 72.1049 55.7103C71.9864 55.7103 71.7493 55.7103 71.6308 55.7103C61.1999 55.5917 51.1246 47.5315 50.2949 34.2559C48.754 34.4929 47.3316 34.6115 45.7907 34.8485C46.1463 39.9454 48.1613 44.9238 51.7173 48.8354C51.2432 49.9022 50.8876 50.8504 50.4134 51.9172C46.5019 47.1759 44.0127 41.2493 43.5385 35.2041C42.5903 35.3227 36.6636 36.508 35.9524 36.6265C24.6918 39.1157 13.6683 42.9087 3.00036 47.8871C0.511172 49.0724 -0.674155 51.6802 0.39264 53.6952C3.47449 59.7404 6.55634 65.7856 9.63819 71.7122C10.705 73.7272 13.1942 74.557 15.2092 73.6087C31.4482 66.0226 48.754 61.9925 66.1783 61.3998C69.6157 61.2813 73.0532 61.3999 76.6092 61.5184C93.0852 62.3481 109.443 66.3782 124.615 73.6087C126.63 74.557 129.119 73.7272 130.186 71.7122C133.268 65.667 136.35 59.6219 139.432 53.6952C140.38 51.7987 139.194 49.191 136.705 48.0057ZM97.1153 41.3678C97.1153 41.4864 96.9968 41.6049 96.8783 41.7234C96.9968 41.4864 97.1153 41.3678 97.2339 41.1308C97.2339 41.2493 97.1153 41.3678 97.1153 41.3678Z" fill="#714615"/>
<path d="M67.9562 0.237793C51.1245 0.237793 37.6118 13.8691 37.6118 30.5822C37.6118 32.4787 37.7303 34.3752 38.0859 36.2717C38.4415 36.1532 38.7971 36.1532 39.1527 36.0347C39.0342 35.0864 39.0342 34.2567 39.0342 33.5455C39.0342 17.6621 52.0728 4.86057 68.0747 4.86057C84.0766 4.86057 94.389 15.41 94.389 28.2115C94.389 30.2266 94.0334 32.3602 93.3222 34.6123C90.7145 42.554 83.6025 50.9698 71.1566 50.9698C70.6824 50.9698 70.2083 50.9698 69.6157 50.9698C67.7191 50.8513 65.7041 50.3771 63.689 49.6659C58.7106 47.6509 54.2064 43.6208 52.5469 37.9312C55.3917 45.3988 63.4519 49.903 69.9712 50.0215C80.7577 50.0215 87.6326 42.3169 89.5291 34.2567C89.5291 34.2567 89.5291 34.2567 89.4106 34.2567C89.7662 32.8343 89.8847 31.2934 89.8847 29.871C89.8847 15.1729 79.0983 6.87563 67.4821 6.87563C54.0879 6.87563 43.3014 18.7289 43.3014 33.427C43.3014 34.1381 43.3014 34.7308 43.4199 35.442C43.894 41.3686 46.2647 47.2953 50.1763 52.1551C50.6504 51.0883 51.006 50.1401 51.4801 49.0733C51.4801 48.9547 51.3616 48.9547 51.3616 48.8362C47.9242 44.9246 45.9091 39.9463 45.5535 34.9679C45.5535 34.4937 45.5535 34.0196 45.5535 33.5455C45.5535 21.3366 55.3917 11.4984 67.6006 11.4984C68.3118 11.4984 69.1415 11.4984 69.9712 11.4984C58.9477 11.4984 50.0578 20.981 50.0578 32.5972C50.0578 33.1899 50.0578 33.664 50.0578 34.2567C50.8875 47.5323 60.9628 55.5926 71.3936 55.7111C71.5122 55.7111 71.7492 55.7111 71.8678 55.7111C81.5875 55.7111 92.2554 48.0065 95.2187 35.0864C95.6929 33.0714 95.9299 30.8192 95.9299 28.4486C96.167 11.7355 83.1284 0.237793 67.9562 0.237793ZM98.0635 15.8841C99.723 19.7957 100.316 23.4702 100.316 27.8559C100.316 30.7007 99.96 33.427 99.2488 35.9161C98.7747 37.8127 98.0635 39.4721 97.2338 41.1316C97.8264 41.8428 98.5376 42.4354 99.2488 43.0281C100.079 40.8945 100.79 38.6424 101.145 36.2717C101.501 34.3752 101.619 32.4787 101.619 30.4636C101.738 25.1297 100.316 20.1513 98.0635 15.8841Z" fill="url(#paint0_linear_144_468)"/>
<path d="M32.0409 60.0962C31.5667 60.2148 31.0926 60.0962 30.6185 59.9777C29.9073 59.7406 29.4332 59.6221 29.3146 59.6221C27.6552 59.5036 25.7586 59.385 23.6251 59.2665C22.3212 61.2816 20.4247 62.4669 18.1725 62.8225C17.3428 62.941 16.5131 62.941 15.9204 62.704C15.2092 62.4669 14.8536 61.9928 14.7351 61.2816C14.6166 59.9777 15.2092 59.0294 16.3946 58.1997C17.3428 57.607 18.6467 57.1329 20.3061 56.8958C20.6617 56.8958 21.0173 56.7773 21.3729 56.7773C21.7285 56.3032 21.8471 55.2364 21.9656 53.6955C21.9656 52.6287 22.0841 50.8507 22.3212 48.5986C22.6768 46.465 23.2695 44.8055 24.2177 43.5017C25.5216 41.8422 27.2996 40.8939 29.7888 40.4198C31.2111 40.1827 32.3965 40.3013 33.3447 40.7754C34.4115 41.2495 35.1227 42.0793 35.2413 43.1461C35.3598 43.8573 35.1227 44.8055 34.5301 46.2279C33.8189 47.7688 32.9891 48.5986 32.1594 48.7171C31.8038 48.7171 31.4482 48.7171 31.0926 48.5986C30.6185 48.48 30.3814 48.243 30.3814 47.8874C30.3814 47.6503 30.3814 47.4132 30.6185 46.9391C30.8555 46.465 31.2111 45.9908 31.4482 45.5167C31.8038 44.924 31.9223 44.4499 31.9223 44.0943C31.8038 43.2646 31.0926 42.909 29.6702 43.1461C27.5366 43.5017 26.2328 45.3982 25.403 49.0727C25.2845 49.9024 25.0474 50.9692 24.9289 52.2731C24.6918 54.4067 24.5733 55.4735 24.5733 55.4735C24.5733 55.9476 24.4548 56.3032 24.3363 56.5403C27.4181 56.3032 30.5 56.5403 33.3447 57.1329L34.1745 57.8441C33.7003 59.2665 32.9891 59.9777 32.0409 60.0962ZM19.7135 59.2665C19.2393 59.385 18.8837 59.5036 18.5281 59.6221C18.054 59.8592 17.817 59.9777 17.817 60.2148C17.817 60.3333 17.9355 60.3333 18.1725 60.3333C18.6467 60.2148 19.3579 59.8592 20.1876 59.148C19.9505 59.2665 19.832 59.2665 19.7135 59.2665Z" fill="white"/>
<path d="M29.7888 40.0653C27.1811 40.4209 25.2845 41.4876 23.9807 43.2656C23.0324 44.5695 22.3212 46.3475 21.9656 48.4811C21.7285 50.7332 21.61 52.5112 21.61 53.578C21.4915 55.1189 21.3729 55.8301 21.1359 56.3042C20.8988 56.3042 20.1876 56.4228 20.1876 56.4228C18.5282 56.6598 17.1058 57.134 16.1575 57.8452C14.8537 58.6749 14.261 59.6232 14.261 60.927C14.261 61.0455 14.261 61.1641 14.261 61.2826C14.3795 62.1123 14.8536 62.705 15.6834 63.0606C16.3946 63.2977 17.1058 63.2977 18.054 63.1791C20.4247 62.8235 22.3212 61.6382 23.6251 59.6232C25.6401 59.7417 27.5366 59.8602 29.1961 59.9787C29.3146 59.9787 29.5517 60.0973 30.5 60.3344C31.0926 60.5714 31.6853 60.5714 32.1594 60.4529C33.2262 60.3343 34.0559 59.3861 34.6486 57.8452L34.7671 57.6081L33.7003 56.6598H33.5818C30.8556 56.0672 27.8922 55.9486 24.9289 56.0672C24.9289 55.7116 25.0475 55.356 25.0475 55.356C25.0475 55.2374 25.0475 54.7633 25.4031 52.2741C25.5216 50.9703 25.6401 49.9035 25.8772 49.0737C26.5884 45.6363 27.8922 43.7398 29.7888 43.5027C30.737 43.3842 31.0926 43.5027 31.3297 43.6212C31.4482 43.7398 31.5668 43.8583 31.5668 44.0954C31.5668 44.3324 31.4482 44.688 31.2112 45.1622L30.3814 46.5846C30.1444 46.9402 30.0258 47.2957 30.0258 47.5328V47.6514C30.0258 48.1255 30.3814 48.4811 30.9741 48.5996C31.4482 48.7181 31.9224 48.8367 32.278 48.7181C33.3448 48.5996 34.1745 47.6513 35.0042 45.9919C35.5969 44.5695 35.8339 43.5027 35.8339 42.7915C35.7154 41.6062 35.0042 40.6579 33.7003 40.1838C32.515 39.9467 31.2112 39.8282 29.7888 40.0653ZM16.039 62.2309C15.4463 61.9938 15.2092 61.6382 15.0907 61.1641C14.9722 60.0973 15.4463 59.149 16.6316 58.4378C17.5799 57.8452 18.7652 57.371 20.4247 57.134L21.7285 57.0154L21.8471 56.8969C22.2027 56.3042 22.4397 55.2374 22.5583 53.6965C22.5583 52.6297 22.6768 50.8517 22.9139 48.5996C23.1509 46.5846 23.8621 44.9251 24.8104 43.7398C25.9957 42.1988 27.7737 41.2506 30.1444 40.895C31.4482 40.6579 32.515 40.7765 33.5818 41.1321C34.5301 41.6062 35.1227 42.1988 35.2413 43.1471C35.3598 43.7398 35.1227 44.688 34.5301 45.9919C33.9374 47.4143 33.2262 48.1255 32.3965 48.244C32.1594 48.244 31.8038 48.244 31.4482 48.1255C31.3297 48.1255 30.9741 47.8884 30.9741 47.7699C30.9741 47.6513 30.9741 47.5328 31.2112 47.1772L32.0409 45.7548C32.3965 45.1622 32.515 44.688 32.515 44.2139V44.0954C32.515 43.6212 32.278 43.2656 32.0409 43.0286C31.5668 42.673 30.8556 42.5544 29.9073 42.7915C27.6552 43.1471 26.1143 45.2807 25.4031 48.9552C25.2845 49.7849 25.0475 50.8517 24.9289 52.1556C24.6919 54.5262 24.5733 55.1189 24.5733 55.356L24.3363 56.8969H24.8104C27.8922 56.6598 30.8556 56.8969 33.5818 57.371C33.7003 57.4896 33.8189 57.6081 34.0559 57.8452C33.5818 58.912 32.9892 59.6232 32.278 59.7417C31.9224 59.7417 31.4482 59.7417 30.9741 59.6232C30.2629 59.3861 29.7888 59.2676 29.5517 59.2676C27.8922 59.149 25.8772 59.0305 23.7436 58.912H23.5065L23.388 59.149C22.0841 61.0455 20.4247 62.1123 18.1726 62.4679C17.2243 62.4679 16.5131 62.4679 16.039 62.2309Z" fill="#714615"/>
<path d="M19.595 58.9114C19.1209 59.0299 18.7653 59.1484 18.2912 59.267C17.6985 59.504 17.3429 59.8596 17.4614 60.3338C17.4614 60.3338 17.4614 60.3338 17.4614 60.2152C17.4614 60.3338 17.4614 60.4523 17.58 60.5708C17.817 60.6894 18.0541 60.6894 18.1726 60.6894C18.7653 60.5708 19.4765 60.2152 20.3062 59.504L21.373 58.6743L19.595 58.9114Z" fill="#714615"/>
<path d="M45.3164 58.2002C44.6052 58.2002 43.894 57.9632 43.0642 57.4891C42.7087 57.7261 42.3531 57.8446 41.9975 58.0817C41.1677 58.4373 40.338 58.6744 39.3897 58.6744C38.3229 58.7929 37.3747 58.5558 36.5449 57.9632C35.7152 57.3705 35.2411 56.5408 35.1226 55.474C35.1226 55.1184 35.1226 54.7628 35.2411 54.4072C35.5967 52.8663 36.3079 51.4439 37.6117 50.14C39.0341 48.7176 40.5751 47.8879 42.3531 47.7694C42.8272 47.7694 43.3013 47.7694 43.894 47.8879C44.2496 48.0064 44.6052 48.125 44.7237 48.362C45.0793 47.8879 45.5534 47.6508 46.0276 47.6508C46.8573 47.5323 47.3314 48.0064 47.45 48.8362C47.45 49.6659 47.2129 50.7327 46.5017 52.2736C46.0276 53.2219 45.7905 53.9331 45.672 54.4072C45.672 54.7628 45.672 54.9999 45.7905 55.2369C45.909 55.474 46.0276 55.474 46.1461 55.474C46.1461 55.474 46.3832 55.474 46.6202 55.3555C46.8573 55.2369 47.0944 55.2369 47.2129 55.2369C47.9241 55.2369 48.2797 55.474 48.2797 55.9481C48.2797 56.6593 48.0426 57.1335 47.2129 57.4891C46.7388 57.9632 46.1461 58.2002 45.3164 58.2002ZM43.5384 50.4956C43.3013 50.4956 42.9457 50.4956 42.7087 50.3771C42.4716 50.2586 42.2345 50.2586 42.2345 50.2586C41.5233 50.2586 40.8121 50.7327 40.1009 51.4439C39.5083 52.1551 39.0341 52.9848 38.9156 53.9331C38.7971 54.2887 38.7971 54.5257 38.7971 54.7628C38.9156 55.7111 39.3897 56.1852 40.338 56.1852C40.6936 56.1852 41.1677 56.0667 41.5233 55.7111C41.9975 55.474 42.2345 55.1184 42.2345 54.7628C42.2345 54.5257 42.3531 54.0516 42.4716 53.4589C42.7087 52.5107 43.0643 51.5624 43.5384 50.4956Z" fill="white"/>
<path d="M46.0276 47.4136C45.5534 47.4136 45.0793 47.6506 44.7237 48.0062C44.4866 47.8877 44.2496 47.7692 44.0125 47.6506C43.4199 47.5321 42.9457 47.4136 42.3531 47.4136C40.5751 47.5321 38.9156 48.3618 37.3747 49.9028C36.0708 51.2066 35.2411 52.7475 35.004 54.407C34.8855 54.7626 34.8855 55.2367 34.8855 55.5923C35.004 56.7777 35.4782 57.7259 36.4264 58.3186C37.2562 58.9112 38.3229 59.1483 39.5083 59.0298C40.4565 58.9112 41.2863 58.7927 42.2345 58.4371C42.2345 58.4371 42.9457 57.963 43.0643 57.963C43.894 58.4371 44.6052 58.6742 45.3164 58.6742C46.1461 58.6742 46.8573 58.4371 47.45 58.2C48.5168 57.6074 48.7538 56.7777 48.6353 56.3035C48.6353 55.9479 48.5168 55.7109 48.2797 55.4738C48.0426 55.2367 47.687 55.1182 47.2129 55.2367C46.9758 55.2367 46.7388 55.3553 46.5017 55.3553C46.5017 55.3553 46.2646 55.4738 46.1461 55.4738C46.0276 55.3553 46.0276 55.2367 46.0276 54.9997V54.8811C46.1461 54.5255 46.3832 53.8143 46.8573 52.8661C47.5685 51.4437 47.9241 50.2584 47.9241 49.4286C47.9241 49.3101 47.9241 49.3101 47.9241 49.1916C47.9241 48.5989 47.687 48.2433 47.45 48.0062C47.0944 47.5321 46.6202 47.4136 46.0276 47.4136ZM45.0793 48.836C45.4349 48.4804 45.7905 48.2433 46.1461 48.2433C46.5017 48.2433 46.7388 48.2433 46.8573 48.3618C46.9758 48.4804 47.0944 48.7174 47.0944 49.073C47.0944 49.7842 46.8573 50.851 46.1461 52.2734C45.672 53.2217 45.4349 53.9329 45.3164 54.407C45.1978 54.7626 45.3164 55.2367 45.5534 55.5923C45.7905 55.9479 46.0276 56.0665 46.2646 56.0665L46.8573 55.9479C47.0944 55.8294 47.2129 55.8294 47.3314 55.8294C47.5685 55.8294 47.8056 55.8294 47.8056 55.9479C47.8056 55.9479 47.9241 56.0665 47.9241 56.185V56.3035C47.9241 56.6591 47.8056 57.0147 47.0944 57.3703C46.6202 57.6074 46.0276 57.7259 45.3164 57.8445C44.7237 57.8445 44.1311 57.6074 43.3013 57.1333L43.0643 57.0147C43.0643 57.0147 41.8789 57.7259 41.7604 57.7259C41.0492 58.0815 40.2195 58.2001 39.3897 58.3186C38.4415 58.4371 37.6118 58.2001 36.782 57.7259C35.9523 57.2518 35.5967 56.5406 35.5967 55.5923C35.5967 55.3553 35.5967 54.9997 35.7152 54.6441C35.9523 53.1031 36.782 51.7993 37.9673 50.4954C39.2712 49.073 40.8121 48.3618 42.3531 48.2433C42.8272 48.2433 43.3013 48.2433 43.6569 48.3618C44.0125 48.4804 44.2496 48.5989 44.3681 48.7174L44.6052 49.073L45.0793 48.836Z" fill="#714615"/>
<path d="M42.2344 49.7847C41.4047 49.9032 40.575 50.2588 39.8638 51.0885C39.1526 51.9183 38.6785 52.748 38.5599 53.6962C38.4414 54.0518 38.4414 54.4074 38.4414 54.6445C38.5599 55.8298 39.2711 56.541 40.4565 56.4225C40.9306 56.4225 41.4047 56.1854 41.7603 55.9484C42.353 55.5928 42.59 55.2372 42.7086 54.763L42.9456 53.4592C43.0642 52.6295 43.4198 51.6812 43.8939 50.6144L44.131 50.0217H43.4198C43.3012 50.0217 43.0642 50.0217 42.8271 49.9032C42.353 49.7847 42.353 49.7847 42.2344 49.7847ZM39.2711 54.6445V54.526C39.2711 54.2889 39.2711 54.1704 39.3897 53.9333C39.5082 53.1036 39.9823 52.2739 40.575 51.6812C41.1677 51.0885 41.7603 50.7329 42.353 50.6144C42.4715 50.6144 42.7086 50.7329 42.7086 50.7329C42.8271 50.7329 42.9456 50.7329 43.0642 50.8515C42.7086 51.7997 42.353 52.6295 42.2344 53.4592L41.9974 54.763C41.9974 55.0001 41.7603 55.2372 41.4047 55.4742C41.0491 55.7113 40.6935 55.8298 40.4565 55.8298C39.6267 55.7113 39.2711 55.4742 39.2711 54.6445Z" fill="#714615"/>
<path d="M60.2514 57.3703C59.6588 57.6074 59.0661 57.7259 58.4734 57.7259C57.6437 57.7259 56.9325 57.4889 56.4584 57.1333C55.9842 56.6591 55.7472 56.0665 55.7472 55.2367C55.7472 54.8812 55.7472 54.5256 55.8657 54.17C55.8657 53.9329 56.1028 53.4588 56.3398 52.7476C56.814 51.5622 57.051 50.7325 57.051 50.2584C57.051 49.9028 56.9325 49.6657 56.5769 49.6657C55.6287 49.6657 54.5619 50.7325 53.3765 52.7476C53.1395 53.1032 52.6653 54.2885 51.8356 56.185C51.7171 56.5406 51.3615 56.8962 51.0059 57.2518C50.5317 57.6074 50.0576 57.8445 49.5835 57.8445C48.8723 57.8445 48.3982 57.6074 48.5167 56.8962C48.5167 56.7777 48.6352 56.5406 48.6352 56.0665C49.1093 54.2885 49.3464 52.8661 49.5835 51.7993C49.702 51.5622 49.702 51.3252 49.702 51.0881L50.4132 48.3619C50.5317 47.8877 51.0059 47.4136 51.7171 47.1765C52.0727 47.058 52.6653 46.8209 53.6136 46.4653C53.8507 47.058 53.9692 47.5321 53.8507 48.0063C54.2063 47.6507 54.5619 47.4136 54.6804 47.4136C54.9175 47.2951 55.273 47.1765 55.8657 47.058C56.5769 46.8209 57.051 46.8209 57.4066 46.7024C59.3032 46.7024 60.37 47.4136 60.37 48.9545C60.37 49.3101 60.37 49.7842 60.1329 50.3769C60.0144 50.7325 59.8958 51.3252 59.6588 52.0364C59.4217 52.7476 59.3032 53.3402 59.1846 53.6958C59.0661 54.0514 59.0661 54.2885 59.0661 54.5256C59.0661 54.8812 59.1846 55.1182 59.5402 54.9997C59.6588 54.9997 59.7773 54.8812 60.0144 54.8812C60.37 54.7626 60.4885 54.7626 60.7256 54.7626C61.4368 54.7626 61.7923 54.9997 61.7923 55.5924C61.7923 56.4221 61.3182 57.0147 60.2514 57.3703Z" fill="white"/>
<path d="M51.7172 46.9392C50.8875 47.2948 50.2948 47.769 50.1763 48.3616L49.4651 51.0879L49.3466 51.7991L48.3983 56.0662L48.2798 56.896C48.2798 57.3701 48.3983 57.6072 48.6354 57.8442C48.8724 58.0813 49.3466 58.1998 49.8207 58.1998C50.4134 58.1998 50.8875 57.9628 51.4802 57.4886C51.8358 57.133 52.1914 56.7774 52.3099 56.3033C53.1396 54.4068 53.6138 53.34 53.8508 52.9844C55.1547 50.6137 56.1029 50.0211 56.6956 50.0211C56.6956 50.0211 56.6956 50.0211 56.6956 50.1396C56.6956 50.4952 56.5771 51.0879 55.9844 52.3917C55.6288 53.2215 55.5103 53.6956 55.3917 53.9327C55.3917 54.2883 55.2732 54.6439 55.2732 54.9994V55.118C55.2732 56.0662 55.6288 56.7774 56.2215 57.2516C56.8141 57.7257 57.5253 57.9628 58.4736 57.9628C59.0663 57.9628 59.7775 57.8442 60.3701 57.4886C61.5554 57.0145 62.1481 56.3033 62.1481 55.4736C62.1481 55.118 62.0296 54.8809 61.7925 54.6438C61.674 54.6438 61.1999 54.5253 60.7257 54.5253C60.4887 54.5253 60.2516 54.6438 59.896 54.6438C59.896 54.6438 59.6589 54.7624 59.5404 54.7624C59.5404 54.7624 59.5404 54.7624 59.5404 54.6438C59.5404 54.5253 59.5404 54.2883 59.6589 53.9327L60.1331 52.2732L60.6072 50.4952C60.7257 50.0211 60.8442 49.5469 60.8442 49.1913V49.0728C60.8442 47.769 60.2516 46.3466 57.5253 46.3466C57.1697 46.3466 56.5771 46.4651 55.8659 46.7022C55.2732 46.8207 54.9176 47.0578 54.6805 47.1763C54.562 47.1763 54.4435 47.2948 54.325 47.4134C54.325 47.0578 54.2064 46.8207 54.0879 46.4651L53.9694 46.228L51.7172 46.9392ZM51.006 48.5987C51.1246 48.2431 51.4802 47.8875 52.0728 47.6504C52.0728 47.6504 53.0211 47.2948 53.6138 47.0578C53.7323 47.2948 53.7323 47.5319 53.7323 47.769C53.7323 47.8875 53.7323 48.006 53.7323 48.006L53.4952 49.1913L54.325 48.4802C54.7991 48.1246 55.0361 48.006 55.1547 47.8875C55.2732 47.769 55.6288 47.6504 56.2215 47.5319C56.8141 47.2948 57.2883 47.2948 57.6439 47.2948C59.896 47.2948 60.1331 48.3616 60.1331 49.1913C60.1331 49.5469 60.1331 50.0211 60.0145 50.4952L59.5404 52.1547L59.0663 53.8141C58.9477 54.1697 58.9477 54.5253 58.9477 54.7624C58.9477 55.118 59.0663 55.355 59.1848 55.4736C59.3033 55.5921 59.4219 55.7106 59.7775 55.7106L60.2516 55.5921C60.6072 55.4736 60.7257 55.4736 60.8442 55.4736C61.0813 55.4736 61.3184 55.4736 61.4369 55.5921C61.4369 55.5921 61.5554 55.7106 61.5554 55.8292C61.5554 56.0662 61.4369 56.5404 60.2516 57.0145C59.6589 57.2516 59.0663 57.3701 58.5921 57.3701C57.8809 57.3701 57.2883 57.2516 56.8141 56.896C56.4585 56.5404 56.2215 55.9477 56.2215 55.2365C56.2215 54.8809 56.2215 54.5253 56.34 54.1697C56.34 54.0512 56.4585 53.6956 56.8141 52.8659C57.2883 51.6805 57.5253 50.7323 57.5253 50.2581C57.5253 49.5469 57.0512 49.3099 56.6956 49.3099C55.5103 49.3099 54.4435 50.3767 53.1396 52.6288C52.9026 52.9844 52.4284 54.1697 51.5987 56.0662C51.4802 56.4218 51.2431 56.6589 50.8875 57.0145C50.5319 57.3701 50.1763 57.4886 49.8207 57.6072C49.5836 57.6072 49.3466 57.6072 49.228 57.4886C49.1095 57.3701 49.1095 57.2516 49.1095 57.133L49.228 56.4218L50.1763 52.1547L50.4134 51.4435C50.2948 51.3249 51.006 48.5987 51.006 48.5987Z" fill="#714615"/>
<path d="M72.342 57.7258C71.6308 57.7258 70.9196 57.3702 70.2084 56.7775C69.8528 56.896 69.4972 57.1331 69.1416 57.3702C68.3119 57.6072 67.4822 57.7258 66.5339 57.7258C65.4671 57.7258 64.5188 57.3702 63.8076 56.7775C62.9779 56.0663 62.6223 55.2366 62.6223 54.1698C62.6223 53.8142 62.6223 53.4586 62.7408 53.103C63.215 51.5621 64.0447 50.1397 65.4671 49.0729C67.008 47.769 68.5489 47.0578 70.3269 47.1764C70.8011 47.1764 71.2752 47.2949 71.7493 47.4134C72.1049 47.532 72.4605 47.769 72.5791 48.0061C73.0532 47.6505 73.5273 47.4134 74.0015 47.4134C74.8312 47.4134 75.3053 47.8876 75.3053 48.7173C75.3053 49.547 74.8312 50.6138 74.0015 52.0362C73.4088 52.9845 73.1717 53.5771 73.0532 54.0513C72.9347 54.4069 73.0532 54.6439 73.1717 54.881C73.2903 55.1181 73.4088 55.1181 73.5273 55.1181C73.5273 55.1181 73.7644 55.1181 74.0015 54.9995C74.2385 54.881 74.4756 54.881 74.5941 54.881C75.3053 54.881 75.5424 55.1181 75.5424 55.7107C75.5424 56.4219 75.1868 56.896 74.3571 57.1331C73.7644 57.7258 73.0532 57.7258 72.342 57.7258ZM71.1567 49.9026C70.8011 49.9026 70.564 49.7841 70.3269 49.6656C70.0899 49.547 69.9713 49.4285 69.8528 49.4285C69.1416 49.4285 68.3119 49.7841 67.6007 50.3767C66.8895 51.0879 66.4154 51.7991 66.1783 52.7474C66.0598 53.103 66.0598 53.3401 66.0598 53.5771C66.0598 54.5254 66.5339 55.1181 67.4822 55.1181C67.8378 55.1181 68.3119 54.9995 68.6675 54.7625C69.1416 54.5254 69.3787 54.1698 69.4972 53.9327C69.6157 53.6957 69.6157 53.2215 69.8528 52.6289C70.2084 51.9177 70.564 50.9694 71.1567 49.9026Z" fill="white"/>
<path d="M65.1115 48.8359C63.6891 50.0212 62.7409 51.4436 62.2667 53.103C62.1482 53.4586 62.1482 53.9328 62.1482 54.2884C62.1482 55.4737 62.6223 56.422 63.4521 57.1331C64.2818 57.8443 65.23 58.0814 66.4154 58.1999C67.3636 58.1999 68.3119 58.0814 69.1416 57.7258C69.1416 57.7258 69.8528 57.3702 70.0899 57.2517C70.8011 57.8443 71.5123 58.0814 72.2235 58.0814C73.0532 58.0814 73.7644 57.9629 74.3571 57.7258C75.5424 57.2517 75.7795 56.4219 75.7795 55.8293C75.7795 55.4737 75.6609 54.644 74.3571 54.644C74.12 54.644 73.8829 54.644 73.6459 54.7625C73.6459 54.7625 73.4088 54.7625 73.2903 54.881C73.2903 54.7625 73.1717 54.644 73.1717 54.5254C73.1717 54.4069 73.1717 54.4069 73.1717 54.2884C73.2903 53.9328 73.6459 53.2216 74.12 52.3918C74.9497 50.8509 75.4239 49.7841 75.4239 48.8359C75.4239 48.3617 75.3053 47.8876 74.9497 47.6505C74.7127 47.2949 74.2385 47.1764 73.6459 47.1764C73.1717 47.1764 72.6976 47.4135 72.342 47.6505C72.1049 47.532 71.8679 47.2949 71.6308 47.1764C71.1567 46.9393 70.564 46.8208 69.9714 46.8208C68.4304 46.8208 66.6524 47.532 65.1115 48.8359ZM66.4154 57.3702C65.4671 57.3702 64.6374 57.1331 63.9262 56.5405C63.215 55.9478 62.8594 55.2366 62.8594 54.2884C62.8594 54.0513 62.8594 53.6957 62.9779 53.3401C63.3335 51.9177 64.2818 50.6138 65.5856 49.4285C67.008 48.1247 68.549 47.532 70.2084 47.532C70.6825 47.532 71.1567 47.6505 71.5123 47.7691C71.8679 47.8876 72.1049 48.1247 72.1049 48.2432L72.342 48.5988L72.6976 48.3617C73.0532 48.0061 73.4088 47.8876 73.8829 47.8876C74.2385 47.8876 74.4756 48.0061 74.5941 48.1247C74.7127 48.2432 74.8312 48.4803 74.8312 48.8359C74.8312 49.5471 74.3571 50.6138 73.6459 51.9177C73.0532 52.866 72.6976 53.5772 72.5791 54.0513C72.4605 54.4069 72.5791 54.881 72.6976 55.2366C72.9347 55.5922 73.1717 55.7108 73.4088 55.7108L74.0015 55.5922C74.2385 55.5922 74.3571 55.4737 74.4756 55.4737C75.0683 55.4737 75.0683 55.7108 75.0683 55.9478C75.0683 56.3034 74.9497 56.7775 74.12 57.0146C73.6459 57.2517 73.0532 57.2517 72.342 57.2517C71.7493 57.2517 71.1567 57.0146 70.4455 56.4219L70.2084 56.3034L68.9046 56.8961C68.0748 57.2517 67.2451 57.3702 66.4154 57.3702Z" fill="#714615"/>
<path d="M67.482 50.2587C66.7708 50.9699 66.1781 51.7996 65.941 52.7479C65.8225 53.1035 65.8225 53.3405 65.8225 53.6961C65.8225 54.2888 65.941 54.7629 66.2966 55.1185C66.6522 55.4741 67.1264 55.5927 67.719 55.5927C68.1932 55.5927 68.6673 55.4741 69.1414 55.2371C69.7341 55 70.0897 54.5259 70.2082 54.1703L70.5638 52.8664C70.8009 52.0367 71.1565 51.0884 71.7491 50.1402L72.1047 49.5475H71.3935C71.275 49.5475 71.0379 49.5475 70.8009 49.429C70.3268 49.1919 70.3268 49.1919 70.2082 49.1919C69.0229 49.1919 68.1932 49.5475 67.482 50.2587ZM67.6005 54.8815C67.2449 54.8815 66.8893 54.7629 66.7708 54.6444C66.6522 54.5259 66.5337 54.1703 66.5337 53.8147C66.5337 53.5776 66.5337 53.3405 66.6522 53.1035C66.8893 52.2737 67.3634 51.5625 67.9561 50.9699C68.5488 50.3772 69.1414 50.1402 69.8526 50.1402C69.9712 50.1402 70.2082 50.2587 70.2082 50.2587C70.3268 50.2587 70.4453 50.3772 70.5638 50.3772C70.0897 51.207 69.7341 52.0367 69.497 52.8664L69.1414 54.1703C69.1414 54.4073 68.9044 54.6444 68.5488 54.7629C68.1932 54.7629 67.8376 54.8815 67.6005 54.8815Z" fill="#714615"/>
<path d="M94.1515 59.8597C93.6774 59.8597 93.2032 59.6226 92.7291 59.3856C92.1364 59.03 91.6623 58.7929 91.5438 58.7929C89.8843 58.3188 88.1063 57.7261 85.9727 57.1335C84.1947 58.7929 82.1797 59.5041 79.809 59.3856C78.8608 59.3856 78.1496 59.1485 77.6754 58.7929C77.0828 58.4373 76.7272 57.8446 76.8457 57.1335C76.9642 55.8296 77.794 54.9999 79.2164 54.5257C80.2832 54.1701 81.7056 53.9331 83.365 54.0516C83.7206 54.0516 84.0762 54.1701 84.5503 54.1701C84.9059 53.696 85.3801 52.8663 85.7357 51.3253C85.9727 50.2586 86.5654 48.5991 87.2766 46.4655C87.9878 44.4505 89.0546 42.9095 90.2399 41.9613C91.7808 40.6574 93.9144 40.0647 96.4036 40.1833C97.826 40.3018 98.8928 40.6574 99.841 41.2501C100.789 41.9613 101.263 42.9095 101.145 43.9763C101.026 44.6875 100.552 45.6358 99.7225 46.8211C98.6557 48.2435 97.7075 48.8362 96.8777 48.8362C96.5221 48.8362 96.1665 48.7176 95.8109 48.4806C95.4553 48.2435 95.2183 48.0064 95.2183 47.6508C95.2183 47.4138 95.3368 47.1767 95.6924 46.8211C96.048 46.4655 96.4036 45.9914 96.7592 45.6358C97.2333 45.1616 97.4704 44.6875 97.4704 44.3319C97.5889 43.5022 96.8777 43.0281 95.4553 42.9095C93.3218 42.791 91.5438 44.3319 90.0028 47.7694C89.6472 48.5991 89.2916 49.5474 88.8175 50.7327C88.1063 52.7477 87.7507 53.696 87.7507 53.8145C87.6322 54.2887 87.5136 54.5257 87.2766 54.8813C90.3584 55.3555 93.2032 56.1852 95.9295 57.3705L96.5221 58.2002C95.9295 59.267 95.0997 59.8597 94.1515 59.8597ZM82.2982 56.3037C81.8241 56.3037 81.4685 56.3037 80.9944 56.4223C80.5202 56.5408 80.2832 56.6593 80.1646 56.8964C80.1646 57.0149 80.2832 57.0149 80.4017 57.0149C80.8758 57.0149 81.587 56.7779 82.6538 56.3037C82.5353 56.3037 82.4167 56.3037 82.2982 56.3037Z" fill="white"/>
<path d="M89.8846 41.6056C88.5807 42.6724 87.6324 44.2133 86.8027 46.2284C86.0915 48.4805 85.6174 50.0214 85.2618 51.2068C84.7877 52.7477 84.4321 53.3403 84.195 53.6959C83.9579 53.6959 83.2467 53.5774 83.2467 53.5774C81.5873 53.4589 80.1649 53.5774 78.9796 54.0515C77.4386 54.6442 76.4904 55.5925 76.3718 57.0149C76.2533 57.8446 76.6089 58.5558 77.4386 59.0299C78.0313 59.3855 78.861 59.6226 79.8093 59.7411C82.1799 59.8596 84.3135 59.1484 86.0915 57.489C87.988 57.9631 89.8846 58.5558 91.4255 59.0299C91.544 59.0299 91.7811 59.1484 92.6108 59.6226C93.0849 59.9782 93.6776 60.0967 94.1517 60.0967C95.2185 60.2152 96.1668 59.504 97.1151 58.0817L97.2336 57.8446L96.4039 56.6593H96.2853C93.6776 55.5925 90.9514 54.7627 87.988 54.2886C88.1066 53.933 88.2251 53.6959 88.2251 53.6959C88.2251 53.6959 88.3436 53.2218 89.2919 50.7326C89.6475 49.5473 90.1216 48.4805 90.3587 47.7693C91.7811 44.5689 93.4405 43.028 95.3371 43.1465C96.2853 43.1465 96.6409 43.3836 96.7595 43.6207C96.7595 43.7392 96.878 43.8577 96.878 43.9763V44.0948C96.878 44.3319 96.7595 44.5689 96.2853 45.1616L95.2185 46.3469C94.8629 46.7025 94.7444 47.0581 94.6259 47.4137C94.6259 47.7693 94.7444 48.1249 95.3371 48.599C95.6927 48.8361 96.1668 48.9546 96.5224 49.0732C97.5892 49.1917 98.656 48.4805 99.7228 46.9396C100.671 45.7543 101.145 44.6875 101.145 43.9763C101.264 42.7909 100.79 41.7241 99.7228 40.8944C98.7745 40.1832 97.4707 39.8276 96.0483 39.7091C93.7961 39.5906 91.544 40.1832 89.8846 41.6056ZM84.7877 54.4071C85.2618 53.933 85.7359 52.9847 86.0915 51.4438C86.3286 50.377 86.9212 48.7176 87.5139 46.584C88.2251 44.6875 89.1734 43.1465 90.3587 42.1983C91.8996 40.8944 93.7961 40.4203 96.1668 40.5388C97.4707 40.6573 98.5375 41.0129 99.3672 41.6056C100.197 42.1983 100.671 43.028 100.553 43.9763C100.434 44.5689 100.078 45.5172 99.2486 46.584C98.3004 47.7693 97.4707 48.4805 96.7595 48.362C96.5224 48.362 96.1668 48.2434 95.9297 48.0064C95.8112 47.8878 95.5741 47.7693 95.5741 47.5322C95.5741 47.4137 95.5741 47.2952 95.9297 46.9396L96.9965 45.7543C97.4707 45.1616 97.7077 44.6875 97.8263 44.2133C97.8263 44.0948 97.8263 44.0948 97.8263 43.9763C97.8263 43.6207 97.7077 43.3836 97.4706 43.028C97.1151 42.5539 96.4039 42.3168 95.4556 42.3168C93.2035 42.1983 91.3069 43.8577 89.766 47.4137C89.4104 48.2434 89.0548 49.1917 88.5807 50.4956C87.8695 52.7477 87.6324 53.3403 87.5139 53.5774L86.9212 54.9998L87.3954 55.1183C90.3587 55.5925 93.2035 56.4222 95.9297 57.489C96.0483 57.6075 96.1668 57.8446 96.2853 58.0817C95.5741 59.0299 94.8629 59.6226 94.1517 59.504C93.7961 59.504 93.322 59.3855 92.9664 59.1485C92.2552 58.7929 91.8996 58.5558 91.6626 58.4373C90.0031 57.8446 88.1066 57.3705 86.0915 56.7778H85.8545L85.7359 56.8963C84.0765 58.4373 82.1799 59.1484 79.9278 59.0299C79.0981 59.0299 78.5054 58.7928 78.0313 58.4373C77.5572 58.0817 77.3201 57.7261 77.3201 57.1334C77.4386 56.0666 78.1498 55.2369 79.3352 54.8813C80.4019 54.5257 81.7058 54.4071 83.2467 54.4071L84.5506 54.5257L84.7877 54.4071Z" fill="#714615"/>
<path d="M80.8761 56.0662C80.1649 56.1847 79.8093 56.5403 79.8093 56.8959C79.8093 57.0144 79.8093 57.133 79.9279 57.133C80.0464 57.37 80.2835 57.37 80.5205 57.37C81.1132 57.37 81.8244 57.133 82.8912 56.6588L84.0765 56.0662L82.2985 55.8291C81.8244 55.9476 81.3502 55.9476 80.8761 56.0662Z" fill="#714615"/>
<path d="M110.747 58.4375L110.628 59.0302C110.628 59.1487 110.51 59.2672 110.51 59.3858C110.391 59.6228 110.391 59.8599 110.272 60.2155L110.154 59.9784C110.035 60.0969 109.917 60.2155 109.798 60.334C109.206 60.4525 108.494 60.4525 107.783 60.4525C107.191 60.334 106.716 60.2155 106.361 60.097C105.887 59.8599 105.531 59.6228 105.294 59.1487C105.294 59.0302 105.176 58.9116 105.176 58.7931C103.99 59.6228 102.568 59.9784 101.027 59.7414C99.2489 59.5043 98.4192 58.556 98.4192 57.0151C98.4192 56.1854 98.7748 54.8815 99.486 53.2221C99.9601 52.0367 100.316 51.207 100.553 50.8514C101.264 49.5475 102.212 48.9549 103.16 49.0734C103.99 49.1919 104.464 49.5475 104.583 50.2587L102.686 54.4074C102.331 55.2371 102.094 55.8298 101.975 56.4224C101.857 57.0151 101.975 57.3707 102.212 57.3707C103.042 57.4892 103.872 57.0151 104.701 55.8298C105.294 54.8815 106.005 53.5777 106.835 52.1553C107.783 50.6143 108.85 49.9031 110.035 50.0217C110.272 50.0217 110.628 50.1402 110.865 50.3773C111.221 50.6143 111.339 50.8514 111.339 51.0885C111.339 51.207 111.339 51.207 111.221 51.3255C110.035 53.5777 109.324 54.8815 109.206 55.2371C108.732 56.3039 108.494 57.0151 108.494 57.2522C108.376 57.7263 108.494 58.0819 108.85 58.0819C108.969 58.0819 109.087 58.0819 109.324 58.0819C109.561 58.0819 109.68 58.0819 109.798 58.0819C109.917 57.9634 110.272 58.2004 110.747 58.4375Z" fill="white"/>
<path d="M100.079 50.6142C99.8416 50.9698 99.486 51.7996 99.0119 52.9849C98.3007 54.6443 97.9451 55.9482 97.9451 56.8965C97.9451 58.793 98.8933 59.8598 100.908 60.0968C102.331 60.2154 103.635 59.9783 104.939 59.2671C105.176 59.7412 105.65 60.0968 106.124 60.3339C106.479 60.4524 106.954 60.571 107.665 60.6895C108.376 60.808 109.087 60.808 109.798 60.571H109.917L110.035 60.4524C110.154 60.571 110.391 60.9266 110.391 60.9266L110.865 59.2671L110.984 58.9115L111.102 58.3189L111.221 58.0818H110.865C110.391 57.7262 110.035 57.6077 109.798 57.6077H109.206H108.732C108.732 57.6077 108.613 57.4891 108.732 57.2521C108.732 57.1335 108.85 56.6594 109.443 55.3555C109.561 55.1185 109.917 54.2887 111.458 51.444L111.576 51.0884C111.576 50.8513 111.576 50.3772 110.984 50.0216C110.628 49.7845 110.272 49.666 110.035 49.666C108.732 49.5474 107.546 50.2586 106.479 51.9181L104.346 55.5926C103.635 56.5409 103.042 57.015 102.331 56.8965C102.331 56.8965 102.331 56.7779 102.331 56.6594C102.331 56.5409 102.331 56.4223 102.331 56.3038C102.449 55.8297 102.568 55.237 102.923 54.4073L104.939 50.1401V50.0216C104.82 49.4289 104.346 48.7177 103.161 48.5992C101.857 48.4806 100.908 49.1918 100.079 50.6142ZM100.908 59.2671C99.3675 59.03 98.6563 58.3189 98.6563 56.8965C98.6563 56.0667 99.0119 54.8814 99.7231 53.2219C100.197 52.0366 100.553 51.2069 100.79 50.9698C101.501 49.7845 102.212 49.3104 102.923 49.4289C103.516 49.5474 103.872 49.7845 103.99 50.1401C103.872 50.3772 102.094 54.0517 102.094 54.0517C101.738 54.8814 101.501 55.5926 101.383 56.1853C101.383 56.3038 101.383 56.4223 101.383 56.5409C101.383 56.8965 101.501 57.1335 101.62 57.2521L102.094 57.4891C103.042 57.6077 103.99 57.015 104.939 55.8297L107.072 52.1552C107.902 50.7328 108.85 50.1401 109.798 50.2586C110.035 50.2586 110.272 50.3772 110.51 50.4957C110.628 50.6142 110.747 50.7328 110.747 50.8513V50.9698C109.443 53.3405 108.85 54.6443 108.732 54.8814C108.139 56.3038 108.02 56.7779 108.02 56.8965C108.02 57.015 108.02 57.1335 108.02 57.2521C108.02 57.4891 108.02 57.7262 108.139 57.8447C108.257 57.9633 108.376 58.0818 108.732 58.2003H109.68C109.798 58.2003 109.917 58.3189 110.272 58.4374C110.272 58.5559 110.154 58.6744 110.154 58.6744L110.035 58.9115C110.035 58.9115 110.035 59.0301 109.917 59.1486C109.798 59.2671 109.443 59.5042 109.324 59.6227C108.732 59.7412 108.139 59.7412 107.546 59.7412C106.835 59.6227 106.361 59.5042 106.242 59.5042C105.887 59.3856 105.531 59.03 105.413 58.6744L105.176 58.0818L104.701 58.3189C103.635 59.1486 102.331 59.5042 100.908 59.2671Z" fill="#714615"/>
<path d="M121.652 61.8744C120.585 62.23 119.874 62.3485 119.4 62.3485C118.688 62.23 118.214 61.5188 117.977 60.3334C117.859 59.8593 117.74 59.2667 117.74 58.674C117.385 58.9111 116.911 59.2666 116.318 59.6222C114.777 60.8076 113.592 61.2817 112.999 61.1632C112.169 61.0446 111.814 60.689 111.932 60.0964C111.932 59.9778 112.051 59.8593 112.051 59.7408C112.288 59.2667 113.236 58.5555 115.014 57.4887C115.488 57.1331 116.318 56.6589 117.385 56.0663C117.385 55.3551 117.385 54.7624 117.266 54.1697C116.555 54.5253 116.081 54.6439 115.725 54.5253C115.014 54.4068 114.658 53.9327 114.895 53.1029C114.895 52.9844 114.895 52.8659 115.014 52.7474C115.251 52.2732 115.844 51.9176 116.792 51.562C117.859 51.2064 118.57 51.0879 119.163 51.0879C119.874 51.2064 120.348 51.9176 120.466 53.1029C120.466 53.34 120.585 53.6956 120.585 54.2883C120.941 54.0512 121.415 53.8141 122.007 53.4585C123.43 52.6288 124.26 52.1547 124.734 52.2732C125.208 52.3918 125.563 52.6288 125.682 52.8659C125.919 53.2215 125.919 53.5771 125.8 53.9327C125.682 54.0512 124.378 54.8809 121.652 56.3033C121.415 56.4219 121.178 56.6589 120.941 56.6589C120.822 56.7775 120.941 57.3701 121.059 58.4369C121.059 58.7925 121.178 59.1481 121.178 59.5037C122.126 59.0296 122.719 58.9111 122.956 58.9111C123.311 59.0296 123.548 59.1481 123.785 59.5037C123.904 59.7408 123.904 59.9778 123.904 60.3334C123.667 60.9261 122.956 61.4002 121.652 61.8744Z" fill="white"/>
<path d="M116.555 51.0878C115.488 51.5619 114.777 52.036 114.54 52.5102L114.421 52.8658C114.303 53.3399 114.421 53.814 114.658 54.1696C114.895 54.5252 115.251 54.6438 115.607 54.7623C115.962 54.7623 116.318 54.7623 116.792 54.5252C116.792 54.9994 116.792 55.4735 116.91 55.7106C116.555 55.9476 114.777 57.0144 114.777 57.0144C112.406 58.4368 111.932 59.0295 111.695 59.3851L111.576 59.8592C111.576 59.9777 111.576 59.9777 111.576 60.0963C111.576 60.5704 111.813 61.1631 112.999 61.4001C113.829 61.5187 114.895 61.0445 116.673 59.8592C116.673 59.8592 117.147 59.5036 117.503 59.2665C117.622 59.7407 117.74 60.3333 117.74 60.3333C117.977 61.7557 118.57 62.4669 119.518 62.704C120.111 62.8225 120.822 62.704 122.007 62.2299C123.43 61.7557 124.141 61.1631 124.259 60.3333C124.259 60.2148 124.259 60.0963 124.259 59.9777C124.259 59.7407 124.259 59.5036 124.022 59.2665C123.785 58.9109 123.43 58.5553 122.956 58.5553C122.718 58.5553 122.363 58.5553 121.415 58.9109C121.415 58.6739 121.296 58.3183 121.296 58.3183C121.178 57.4885 121.178 57.133 121.178 56.8959C121.415 56.7774 121.77 56.5403 121.77 56.5403C125.919 54.4067 126.037 54.1696 126.037 53.9326C126.156 53.6955 126.156 53.577 126.156 53.3399C126.156 53.1028 126.037 52.8658 125.919 52.5102C125.682 52.036 125.208 51.799 124.615 51.6804C124.259 51.5619 123.548 51.6804 121.652 52.8658C121.652 52.8658 121.178 53.1028 120.822 53.3399C120.822 53.1028 120.822 52.7472 120.822 52.7472C120.703 51.4434 120.111 50.6136 119.163 50.4951C118.57 50.6136 117.74 50.7322 116.555 51.0878ZM115.844 54.0511C115.607 54.0511 115.488 53.9326 115.369 53.814C115.251 53.6955 115.251 53.4584 115.251 53.1028L115.369 52.8658C115.488 52.7472 115.725 52.2731 117.029 51.9175C117.977 51.5619 118.688 51.4434 119.163 51.5619C119.4 51.5619 119.992 51.6804 120.229 53.2214L120.348 54.4067V54.9994L120.822 54.6438L122.244 53.814C124.022 52.7472 124.615 52.6287 124.734 52.7472C125.089 52.8658 125.326 52.9843 125.445 53.2214C125.563 53.3399 125.563 53.4584 125.563 53.577C125.563 53.6955 125.563 53.6955 125.563 53.814C125.445 53.9326 124.734 54.4067 121.533 56.0662L120.703 56.5403L120.585 56.6588C120.585 56.7774 120.466 56.8959 120.466 57.133C120.466 57.37 120.466 57.8441 120.585 58.6739L120.822 60.2148L121.296 59.9777C122.481 59.3851 122.718 59.3851 122.837 59.3851C123.193 59.5036 123.311 59.6221 123.311 59.7407C123.43 59.8592 123.43 60.0963 123.43 60.3333C123.43 60.5704 123.074 61.0445 121.652 61.5187C120.466 61.9928 119.874 61.9928 119.637 61.9928C119.4 61.9928 118.807 61.8743 118.451 60.3333L118.096 58.0812L117.622 58.4368L116.081 59.2665C114.184 60.6889 113.354 60.8075 112.999 60.6889C112.169 60.5704 112.288 60.2148 112.288 60.0963L112.406 59.9777C112.525 59.8592 112.88 59.2665 115.251 57.8441L117.74 56.3032V56.0662L117.622 54.0511L117.503 53.577L117.029 53.814C116.199 54.0511 115.962 54.0511 115.844 54.0511Z" fill="#714615"/>
<path d="M59.1847 28.9222C58.9476 28.0925 60.7256 27.7369 61.6739 27.6184C61.9109 27.1442 61.7924 26.7886 62.7407 26.6701C62.7407 25.9589 62.6221 25.2477 62.6221 24.5365C62.8592 21.6917 64.5186 18.6099 68.0746 17.1875C72.2233 15.6466 76.609 17.1875 77.9128 20.7435C78.7426 22.9956 78.0314 25.4848 76.7275 27.2628C75.3051 29.1593 73.5271 29.6334 72.2233 29.5149C70.0897 29.2778 68.9044 27.0257 69.26 24.8921C69.497 23.7068 70.2082 22.64 71.275 22.0473V22.2844C70.8009 22.7585 70.4453 23.3512 70.3267 24.1809C69.9712 25.8404 70.8009 27.6184 72.2233 27.8554C74.5939 28.4481 77.4387 25.2477 76.1348 21.4547C75.3051 18.847 72.4603 18.3728 69.497 19.2026C68.0746 19.6767 66.6522 20.2693 66.0596 21.3361C65.4669 22.1659 64.9928 23.1141 64.8742 24.0624C64.7557 24.7736 64.7557 25.4848 64.7557 26.0775L64.6372 26.3145L64.8742 26.0775C64.8742 26.0775 64.9928 26.3145 65.2298 26.0775C67.1264 25.1292 66.7708 27.2628 65.5854 27.3813C65.5854 27.3813 65.704 29.0408 66.2966 30.5817C66.4152 30.8188 67.0078 31.1744 67.2449 31.1744C73.6457 31.2929 76.7275 33.4265 77.6758 31.767C76.9646 30.2261 77.0831 29.6334 77.4387 29.6334C78.2684 29.752 78.9796 31.53 78.624 33.1894C78.624 34.4933 78.624 44.213 78.624 44.213C78.624 44.213 75.5422 44.3315 74.5939 44.3315C75.0681 43.5018 75.6607 40.657 76.1348 39.1161C76.1348 40.4199 74.9495 36.2713 73.2901 35.7971C72.3418 35.0859 70.0897 36.3898 67.482 35.9157L67.3634 44.0944C67.3634 44.0944 65.1113 44.213 63.5704 44.0944C63.3333 42.9091 64.4001 40.0643 64.5186 38.9975C63.8075 38.2863 64.8742 36.3898 63.5704 35.2045C62.3851 34.0191 62.5036 32.3597 62.3851 31.767C62.2665 31.1744 61.9109 30.1076 61.0812 30.5817C60.2515 31.0558 60.0144 29.6334 58.9476 30.1076C57.8808 30.8188 58.7105 29.752 59.1847 28.9222Z" fill="#714615"/>
<path d="M58.4738 29.159C58.2368 28.4478 60.0147 28.0922 60.963 27.9737C61.2001 27.4995 61.0815 27.1439 62.0298 27.1439C61.9113 26.5513 61.9113 25.8401 61.9113 25.1289C62.1483 22.4026 63.8078 19.4393 67.3638 18.1354C71.5124 16.5945 75.8981 18.1354 77.202 21.5729C78.0317 23.7065 77.3205 26.0771 76.0167 27.8551C74.5943 29.7517 72.8163 30.1072 71.5124 29.9887C69.3788 29.7517 68.1935 27.6181 68.5491 25.603C68.7862 24.4177 69.4974 23.4694 70.5642 22.8768V23.1138C70.09 23.588 69.7344 24.1806 69.6159 24.8918C69.2603 26.4327 70.09 28.0922 71.5124 28.4478C73.8831 29.0405 76.7279 25.9586 75.424 22.2841C74.5943 19.7949 71.1568 18.7281 68.1935 19.7949C66.8896 20.269 65.8228 21.0988 65.2302 22.1656C64.6375 22.9953 64.2819 23.825 64.1634 24.7733C64.0449 25.4845 64.0449 26.4327 64.0449 27.0254C64.0449 27.0254 64.1634 27.0254 64.4005 26.7883C66.297 25.9586 65.9414 27.7366 64.7561 27.9737C64.7561 27.9737 64.8746 29.6331 65.4672 31.0555C65.5858 31.2926 66.1784 31.6482 66.4155 31.6482C72.8163 31.7667 75.8981 33.7818 76.8464 32.2408C77.202 28.0922 78.5058 30.937 78.0317 33.5447C78.0317 34.73 78.0317 44.0941 78.0317 44.0941C78.0317 44.0941 76.1352 44.2126 75.1869 44.2126C75.6611 43.3829 76.2537 40.064 76.0167 38.8787C75.0684 38.286 74.8313 36.6265 74.1201 35.9154C73.1719 35.2042 69.4974 36.7451 66.8896 36.271L66.6526 43.857C66.6526 43.857 65.4673 43.9756 63.9263 43.857C63.6893 42.7903 64.7561 40.064 64.8746 38.9972C64.1634 38.286 65.2302 36.508 63.9263 35.3227C62.741 34.2559 62.8595 32.5964 62.741 32.0038C62.6225 31.4111 62.2669 30.4628 61.5557 30.937C60.7259 31.4111 60.4889 30.1073 59.4221 30.4628C58.2368 31.0555 57.9997 30.1073 58.4738 29.159Z" fill="white"/>
<path d="M58.5924 28.9217C58.5924 28.092 60.4889 28.5661 60.8445 28.092C61.0815 27.7364 61.0815 27.3808 61.7927 27.2622C61.9113 27.2622 62.1483 26.7881 62.1483 26.7881C61.9113 23.8248 62.6225 21.2171 65.1117 19.3205C67.0082 17.8981 69.3788 17.5425 71.631 17.7796C77.202 18.3723 79.4541 25.1286 74.7128 28.8032C73.2904 29.9885 71.1568 29.8699 69.7344 28.8032C69.0232 28.329 68.7862 27.4993 68.5491 26.6696C68.1935 25.3657 68.7862 24.1804 69.7344 23.3506C70.9198 22.2839 70.09 23.2321 70.09 23.2321C68.9047 24.8916 68.6676 27.8549 71.0383 28.5661C72.8163 29.1587 74.5943 27.2622 75.1869 25.7213C76.6093 22.1653 74.3572 19.3205 70.8012 18.9649C67.9564 18.7279 65.5858 20.6244 64.4005 22.995C63.6893 24.1804 63.6893 25.6028 63.6893 27.0252C63.6893 26.0769 66.8896 26.7881 64.7561 27.4993C64.6375 27.4993 64.4005 27.9734 64.4005 27.9734C64.6375 29.7514 64.6375 31.5294 66.7711 31.6479C69.0232 31.7665 71.1568 32.1221 73.2904 32.5962C74.1201 32.7147 76.6093 33.3074 76.7279 31.7665C76.7279 31.1738 76.9649 29.5143 77.5576 30.6997C77.9132 31.5294 77.7947 32.5962 77.6761 33.5445C77.5576 34.6113 77.6761 35.7966 77.6761 36.8634C77.6761 39.234 77.6761 41.7232 77.6761 44.0939C77.7947 43.9753 77.9132 43.7383 77.9132 43.6197C77.202 43.7383 75.0684 44.2124 75.3055 43.2641C75.7796 41.8417 76.1352 40.0638 75.8981 38.6414C75.7796 38.0487 74.9499 37.1004 74.5943 36.5078C74.2387 35.7966 74.0016 35.2039 73.1719 35.2039C71.0383 35.0854 68.9047 36.0336 66.7711 35.678C66.6526 35.678 66.534 36.1522 66.4155 36.1522C66.4155 38.7599 66.297 41.3676 66.297 43.9753C66.4155 43.8568 66.534 43.6197 66.6526 43.5012C66.1784 43.5012 63.9263 43.7383 63.9263 43.2641C63.8078 42.4344 64.1634 41.4862 64.4005 40.6564C64.8746 38.997 64.8746 37.5746 64.519 35.9151C64.2819 34.9669 63.2151 34.2557 62.9781 33.1889C62.741 32.2406 62.9781 31.5294 62.3854 30.6997C62.1483 30.3441 61.6742 30.6997 61.3186 30.6997C61.0815 30.8182 60.7259 30.4626 60.6074 30.3441C59.6591 29.7514 57.7626 31.4109 58.5924 28.9217C58.5924 28.9217 58.3553 29.2773 58.3553 29.3958C58.1182 29.9885 57.9997 30.3441 58.3553 30.8182C58.5924 31.0553 59.4221 30.6997 59.6591 30.5811C60.0147 30.4626 60.3703 30.8182 60.6074 30.9367C61.3186 31.4109 61.7927 30.5811 62.3854 31.4109C62.8595 32.0035 62.741 32.9518 62.741 33.663C62.8595 34.8483 63.8078 35.3225 64.2819 36.3892C64.6375 37.1004 64.2819 38.1672 64.519 38.8784C64.8746 40.5379 63.5707 42.1973 63.8078 43.9753C64.7561 43.9753 65.5858 44.0939 66.534 43.9753C66.6526 43.9753 66.8896 43.6197 66.8896 43.5012C66.8896 40.8935 66.9711 38.5228 66.9711 35.9151C66.8526 36.0336 66.7711 36.0336 66.7711 36.1522C68.1935 36.2707 69.6159 36.1522 71.0383 35.9151C71.9866 35.7966 73.5275 35.2039 74.2387 36.1522C74.9499 37.1004 76.0167 38.7599 76.0167 39.8267C76.0167 41.1306 75.7796 42.79 75.1869 44.0939C75.1869 44.0939 75.0684 44.2124 75.1869 44.2124C76.1352 44.2124 77.0835 44.2124 78.0317 44.0939C78.1503 44.0939 78.3873 43.7383 78.3873 43.6197C78.3873 41.2491 78.3873 38.7599 78.3873 36.3892C78.3873 35.3225 78.3873 34.2557 78.3873 33.0703C78.3873 32.9518 78.5058 29.1587 77.7947 29.6329C77.4391 29.8699 77.3205 30.2255 77.202 30.5811C76.9649 31.2923 77.3205 32.0035 76.4908 32.2406C76.0167 32.3591 75.3055 32.2406 74.8313 32.2406C72.8163 32.0035 70.9198 31.5294 68.9047 31.2923C67.8379 31.1738 66.6526 31.4109 65.8228 30.5811C65.3487 29.9885 65.2302 28.329 65.1117 27.4993C64.9931 27.6178 64.8746 27.8549 64.7561 27.9734C65.2302 27.8549 66.6526 26.6696 65.8228 26.0769C65.4673 25.8398 64.7561 26.1954 64.519 26.4325C64.2819 26.551 64.4005 24.536 64.4005 24.1804C64.7561 20.5059 68.7862 18.9649 71.868 19.4391C73.5275 19.6761 74.8313 20.7429 75.424 22.1653C76.3723 24.536 74.9499 27.8549 72.1051 27.8549C69.7344 27.8549 69.2603 24.4174 70.5642 22.995C70.8012 22.758 70.8012 22.5209 70.8012 22.2839C67.8379 24.1804 67.3638 29.0402 71.5124 29.8699C75.3055 30.5811 77.9132 25.8398 77.9132 22.758C78.0317 16.9499 70.5642 16.1202 66.6526 18.0167C63.2151 19.6761 61.7927 23.4692 62.1483 27.1437C62.2669 27.0252 62.3854 26.7881 62.3854 26.6696C61.5557 26.7881 61.3186 27.3808 61.0815 27.9734C61.2001 27.8549 61.3186 27.6178 61.3186 27.4993C60.2518 27.6178 58.5924 27.8549 58.5924 29.1587C58.3553 29.3958 58.5924 29.1587 58.5924 28.9217Z" fill="#714615"/>
<defs>
<linearGradient id="paint0_linear_144_468" x1="40.8833" y1="40.742" x2="94.1922" y2="16.4627" gradientUnits="userSpaceOnUse">
<stop stop-color="#B29167"/>
<stop offset="0.0756758" stop-color="#B6976F"/>
<stop offset="0.1933" stop-color="#C1A785"/>
<stop offset="0.3382" stop-color="#D3C1A9"/>
<stop offset="0.5032" stop-color="#ECE4DA"/>
<stop offset="0.6124" stop-color="white"/>
<stop offset="0.6703" stop-color="#F2ECE4"/>
<stop offset="0.8276" stop-color="#CFBBA1"/>
<stop offset="0.9417" stop-color="#BA9D77"/>
<stop offset="1" stop-color="#B29167"/>
</linearGradient>
</defs>
</svg>
