<?xml version="1.0" encoding="utf-8"?><svg xmlns="http://www.w3.org/2000/svg" xmlns:xlink="http://www.w3.org/1999/xlink"><symbol viewBox="0 0 53 53" id="adv-1" xmlns="http://www.w3.org/2000/svg"><path d="M49.29 23.95l-1.373-5.49a.83.83 0 00.657-.812v-.885a3.49 3.49 0 00-3.485-3.485h-6.252v-1.826c0-.946-.77-1.715-1.715-1.715H5.256c-.946 0-1.715.77-1.715 1.715V26.5a.83.83 0 001.66 0V11.452c0-.03.024-.055.055-.055h31.866c.03 0 .055.025.055.055V26.5a.83.83 0 101.66 0v-.94h9.794c1.205 0 2.227.791 2.579 1.88h-2.58a.83.83 0 00-.83.83v1.77a2.603 2.603 0 002.6 2.601h.94v3.651h-2.17a5.264 5.264 0 00-4.967-3.54 5.264 5.264 0 00-4.967 3.54h-.4v-6.251a.83.83 0 00-1.659 0v6.251H19.96a5.264 5.264 0 00-4.967-3.54 5.264 5.264 0 00-4.967 3.54h-4.77a.055.055 0 01-.056-.055v-1.826h3.596a.83.83 0 000-1.66H.83a.83.83 0 000 1.66h2.71v1.826c0 .946.77 1.715 1.716 1.715h4.482l-.001.055a5.262 5.262 0 005.256 5.256 5.262 5.262 0 005.255-5.256l-.001-.055h18.702l-.001.055a5.262 5.262 0 005.255 5.256 5.262 5.262 0 005.256-5.256l-.001-.055h2.712a.83.83 0 00.83-.83V28.27a4.377 4.377 0 00-3.71-4.32zm-10.453-9.012h6.252c1.006 0 1.825.819 1.825 1.825v.056h-8.077v-1.881zm0 8.962v-5.422h7.374l1.356 5.422h-8.73zM14.993 41.603a3.6 3.6 0 01-3.596-3.596 3.6 3.6 0 013.596-3.596 3.6 3.6 0 013.596 3.596 3.6 3.6 0 01-3.596 3.596zm29.21 0a3.6 3.6 0 01-3.596-3.596 3.6 3.6 0 013.597-3.596 3.6 3.6 0 013.596 3.596 3.6 3.6 0 01-3.596 3.596zm7.137-10.622h-.94a.942.942 0 01-.94-.94v-.94h1.88v1.88z"/><path d="M14.993 36.292c-.946 0-1.715.77-1.715 1.715 0 .946.769 1.716 1.715 1.716.945 0 1.715-.77 1.715-1.715 0-.946-.77-1.716-1.715-1.716zm29.211 0c-.946 0-1.715.77-1.715 1.715 0 .946.769 1.716 1.715 1.716.945 0 1.715-.77 1.715-1.715 0-.946-.77-1.716-1.715-1.716zm-9.737-3.54H22.074a.83.83 0 000 1.66h12.393a.83.83 0 100-1.66zM13.222 29.21H2.6a.83.83 0 000 1.66h10.622a.83.83 0 100-1.66zm15.635-11.263a.83.83 0 00-1.173 0l-7.38 7.38-3.84-3.84a.83.83 0 10-1.173 1.174l4.426 4.426a.827.827 0 001.174 0l7.966-7.967a.83.83 0 000-1.173z"/></symbol><symbol viewBox="0 0 43 43" id="adv-2" xmlns="http://www.w3.org/2000/svg"><path d="M41.53 2.934H1.47c-.81 0-1.47.66-1.47 1.47v5.173c0 .814 1.26.814 1.26 0V4.404a.21.21 0 01.21-.21h40.06a.21.21 0 01.21.21V35.12a.21.21 0 01-.21.21h-8.072v-1.31h6.336a.63.63 0 00.63-.63v-6.596c0-.815-1.26-.815-1.26 0v5.966h-5.706v-2.795l.06.005c.524.046 1.174.103 1.625-.348.45-.45.393-1.102.347-1.625-.05-.562.004-.715.435-1.074 1.111-.924 1.132-1.913 0-2.854-.431-.359-.484-.512-.435-1.074.123-1.409-.535-2.1-1.971-1.973-.56.05-.713-.004-1.07-.436-.923-1.113-1.912-1.134-2.852 0-.357.432-.51.485-1.07.436-1.41-.124-2.097.538-1.971 1.973.049.562-.004.715-.436 1.074-1.11.924-1.131 1.913 0 2.854.432.359.485.513.436 1.074-.133 1.51.588 2.093 2.031 1.968v2.795H3.837V6.764h35.327v16.67c0 .815 1.26.815 1.26 0v-17.3a.63.63 0 00-.63-.63H3.206a.63.63 0 00-.63.63V33.39c0 .347.282.63.63.63h25.381v1.31H1.47a.21.21 0 01-.21-.21V12.768c0-.814-1.26-.814-1.26 0V35.12c0 .81.66 1.47 1.47 1.47h27.117v2.851c.09.518.389.708.896.571l1.54-.716 1.54.716c.38.178.895-.103.895-.57V36.59h8.072c.81 0 1.47-.66 1.47-1.47V4.404c0-.81-.66-1.47-1.47-1.47zM28.416 28.715c-.63.056-.66.022-.605-.608.084-.967-.138-1.532-.885-2.153-.511-.425-.511-.491 0-.916.747-.621.97-1.186.885-2.153-.056-.63-.025-.664.605-.608.968.085 1.532-.14 2.151-.887.423-.511.488-.511.912 0 .62.748 1.183.972 2.15.887.63-.056.661-.022.606.608-.085.967.138 1.532.885 2.153.511.425.511.491 0 .916-.747.621-.97 1.185-.885 2.152.055.63.025.665-.606.61-.395-.036-.844-.075-1.24.089-.382.159-.65.483-.91.797-.123.148-.346.418-.456.466-.11-.048-.334-.318-.456-.466-.26-.314-.529-.638-.911-.797a2.759 2.759 0 00-1.24-.09zm2.872 9.315a.63.63 0 00-.53 0l-.911.424v-7.756c.299.328.668.633 1.176.633.508 0 .877-.305 1.176-.633v7.756l-.91-.424z"/><path d="M8.168 12.037h21.714c.815 0 .815-1.26 0-1.26H8.168c-.814 0-.814 1.26 0 1.26zm27.293 3.201a.63.63 0 00-.63-.63H8.17c-.815 0-.815 1.26 0 1.26h26.663a.63.63 0 00.63-.63zM23.947 19.07a.63.63 0 00-.63-.63H8.17c-.815 0-.815 1.259 0 1.259h15.148a.63.63 0 00.63-.63zm-8.271 8.779l-1.03.001c-.661 0-1.025-.175-1.16-.876-.123-.64-1.046-.558-1.215 0-.074.247-.452.955-.783.897-.174-.03-.25-.3-.316-.44a5.379 5.379 0 01-.296-.85c-.331-1.22-.397-2.495-.605-3.738-.12-.721-1.22-.518-1.237.167-.057 2.181-.413 4.333-1.19 6.377-.288.759.93 1.087 1.215.335.3-.788.537-1.596.722-2.415.099.299.217.592.36.876.368.727 1.119 1.157 1.921.834a2.15 2.15 0 00.77-.563c.597.688 1.483.656 2.31.655 1.247-.001 2.494-.004 3.741-.008.81-.002.812-1.261 0-1.26-1.069.004-2.138.006-3.207.008zm15.347.107a2.463 2.463 0 002.46-2.46 2.463 2.463 0 00-2.46-2.46 2.463 2.463 0 00-2.46 2.46 2.463 2.463 0 002.46 2.46zm0-3.66a1.201 1.201 0 010 2.4 1.201 1.201 0 010-2.4z"/></symbol><symbol viewBox="0 0 43 43" id="adv-3" xmlns="http://www.w3.org/2000/svg"><g clip-path="url(#cclip0_32_55)"><path d="M42.337 8.676h-3.502a3.646 3.646 0 00.447-3.373L38.22 2.45a3.642 3.642 0 00-2.038-2.1 3.644 3.644 0 00-2.928.084l-8.397 3.987a2.521 2.521 0 00-1.47-.471h-3.776c-.547 0-1.055.175-1.47.472L9.746.434A3.646 3.646 0 006.817.351a3.642 3.642 0 00-2.038 2.1L3.72 5.303a3.644 3.644 0 00.446 3.373H.664A.664.664 0 000 9.34v4.778a.664.664 0 001.327 0v-4.115h4.61c.074.026.149.05.224.071l5.572 1.534a44.334 44.334 0 00-3.265 5.96h-7.14v-.796a.663.663 0 00-1.328 0v1.46c0 .367.297.664.664.664H3.03V42.39c0 .367.298.664.664.664h35.612a.664.664 0 00.664-.664v-3.853a.664.664 0 00-1.328 0v3.19h-13.16V19.304a35.539 35.539 0 013.738 11.432.663.663 0 001.186.303 37.01 37.01 0 002.642-4.035 37.822 37.822 0 013.879 3.034.664.664 0 001.098-.591 44.52 44.52 0 00-2.918-10.551h3.535v16.987a.664.664 0 101.327 0V18.896h2.367a.663.663 0 00.664-.664V9.34a.663.663 0 00-.663-.664zm-8.513-7.043c.592-.28 1.252-.3 1.86-.053a2.28 2.28 0 011.293 1.334l1.06 2.851a2.28 2.28 0 01-.109 1.857 2.28 2.28 0 01-1.441 1.172l-10.564 2.909v-3.19C28.297 7.06 34.217 4.06 35.69 6.14a.663.663 0 101.083-.767c-1.137-1.605-3.533-1.683-7.123-.232-1.478.598-2.843 1.328-3.727 1.834v-.49c0-.355-.074-.694-.207-1.001l8.108-3.85zM19.612 5.278h3.776c.666 0 1.207.542 1.207 1.207v5.486c0 .666-.541 1.207-1.207 1.207h-3.776a1.209 1.209 0 01-1.207-1.207V6.485c0-.666.541-1.207 1.207-1.207zm-1.115 12.29a35.395 35.395 0 012.07-3.062h1.866a35.214 35.214 0 012.07 3.062h-6.006zM5.072 7.622a2.284 2.284 0 01-.11-1.857l1.062-2.851A2.28 2.28 0 017.317 1.58a2.284 2.284 0 011.859.053l8.108 3.852a2.52 2.52 0 00-.207 1v.528a31.795 31.795 0 00-3.793-1.872c-3.589-1.451-5.986-1.373-7.123.232a.664.664 0 101.083.767c1.487-2.1 7.505.976 9.833 2.414v3.149L6.514 8.795a2.283 2.283 0 01-1.442-1.173zm12.303 5.54c.33.617.91 1.084 1.603 1.263a36.923 36.923 0 00-6.243 14.536 36.312 36.312 0 01-1.968-3.225.662.662 0 00-.946-.24 38.44 38.44 0 00-3.232 2.36 43.359 43.359 0 016.489-15.878l4.297 1.183zM4.358 18.895h3.535a44.525 44.525 0 00-2.918 10.55.664.664 0 001.098.592 37.786 37.786 0 013.88-3.034c.8 1.415 1.687 2.77 2.641 4.035a.664.664 0 001.186-.303c.586-4 1.859-7.872 3.738-11.432v22.424H4.358V18.896zm14.488 22.832V18.896h5.308v22.832h-5.308zm14.333-16.232a.663.663 0 00-.946.24 36.245 36.245 0 01-1.968 3.225 36.913 36.913 0 00-6.243-14.536 2.545 2.545 0 001.603-1.264l4.298-1.183a43.383 43.383 0 016.489 15.879 38.518 38.518 0 00-3.233-2.36zm8.494-7.927h-7.14a44.367 44.367 0 00-3.265-5.961l5.57-1.534c.077-.02.151-.045.225-.07h4.61v7.565z"/></g><defs><clipPath id="cclip0_32_55"><path d="M0 0h43v43H0z"/></clipPath></defs></symbol><symbol viewBox="0 0 7 7" id="arrow-bottom" xmlns="http://www.w3.org/2000/svg"><path d="M1.75 2.1L3.5 3.85 5.25 2.1l.7.35L3.5 4.9 1.05 2.45l.7-.35z"/></symbol><symbol viewBox="0 0 37 8" id="arrow-right" xmlns="http://www.w3.org/2000/svg"><path d="M36.354 4.354a.5.5 0 000-.708L33.172.464a.5.5 0 10-.707.708L35.293 4l-2.828 2.828a.5.5 0 10.707.708l3.182-3.182zM0 4.5h36v-1H0v1z"/></symbol><symbol viewBox="0 0 15 22" id="basket" xmlns="http://www.w3.org/2000/svg"><path d="M4.688 8.717V3.201S4.848.837 7.302.837c2.454 0 2.613 2.364 2.613 2.364v5.516M.681 20.93h13.614a.1.1 0 00.1-.1V6.06a.1.1 0 00-.1-.1H.681a.1.1 0 00-.1.1v14.77a.1.1 0 00.1.1z"/></symbol><symbol viewBox="0 0 25 24" id="email" xmlns="http://www.w3.org/2000/svg"><g clip-path="url(#gclip0_34_15)"><path fill-rule="evenodd" clip-rule="evenodd" d="M2.178 3c-.462 0-.906.184-1.233.513A1.752 1.752 0 00.434 4.75v14c0 .966.781 1.75 1.744 1.75h20.435a1.748 1.748 0 001.744-1.75v-14A1.741 1.741 0 0022.613 3H2.178zM1.93 4.75a.25.25 0 01.25-.25h20.434a.25.25 0 01.25.25v.852l-10.328 7a.249.249 0 01-.279 0l-10.327-7V4.75zm0 2.662V18.75c0 .138.112.25.25.25h20.434a.249.249 0 00.25-.25V7.412l-9.49 6.433c-.59.4-1.364.4-1.954 0L1.93 7.412z"/></g><defs><clipPath id="gclip0_34_15"><path transform="translate(.434)" d="M0 0h23.923v24H0z"/></clipPath></defs></symbol><symbol viewBox="0 0 183 183" id="info" xmlns="http://www.w3.org/2000/svg"><g opacity=".2" clip-path="url(#hclip0_32_63)"><path d="M147.258 48.61a3.575 3.575 0 003.574 3.574 3.575 3.575 0 000-7.149 3.575 3.575 0 00-3.574 3.574zm14.297 42.89c0 4.578-.46 9.148-1.364 13.582a3.574 3.574 0 107.004 1.43 75.227 75.227 0 001.508-15.012c0-11.254-2.441-22.085-7.256-32.19a3.574 3.574 0 10-6.453 3.076c4.353 9.136 6.561 18.932 6.561 29.114zm-52.184 32.168h-3.574V77.203c0-1.974-1.6-3.574-3.574-3.574H73.629a3.574 3.574 0 00-3.574 3.574V91.5c0 1.974 1.6 3.574 3.574 3.574h3.574v28.594H73.63a3.574 3.574 0 00-3.574 3.574v14.297c0 1.974 1.6 3.574 3.574 3.574h35.742c1.974 0 3.574-1.6 3.574-3.574v-14.297c0-1.974-1.6-3.574-3.574-3.574zm-3.574 14.297H77.203v-7.149h3.574c1.974 0 3.575-1.6 3.575-3.574V91.5c0-1.974-1.6-3.574-3.575-3.574h-3.574v-7.149h21.445v46.465a3.575 3.575 0 003.575 3.574h3.574v7.149zM91.5 66.48c7.883 0 14.297-6.414 14.297-14.296 0-7.883-6.414-14.297-14.297-14.297-7.883 0-14.297 6.414-14.297 14.297 0 7.882 6.414 14.297 14.297 14.297zm0-21.445c3.941 0 7.148 3.207 7.148 7.149 0 3.941-3.207 7.148-7.148 7.148s-7.148-3.207-7.148-7.148c0-3.942 3.207-7.149 7.148-7.149z"/><path d="M91.5 0C42.184 0 0 42.105 0 91.5c0 16.873 4.835 34.817 12.987 48.389L.183 178.296a3.575 3.575 0 004.522 4.52l38.407-12.803C56.683 178.166 74.627 183 91.5 183c49.328 0 91.5-42.11 91.5-91.5C183 42.172 140.891 0 91.5 0zm0 175.852c-16.186 0-33.39-4.777-46.021-12.777a3.572 3.572 0 00-3.044-.371l-33.21 11.07 11.07-33.209a3.57 3.57 0 00-.37-3.044c-8-12.63-12.777-29.835-12.777-46.021 0-45.724 38.628-84.352 84.352-84.352 45.723 0 84.351 38.629 84.351 84.352 0 45.723-38.628 84.352-84.351 84.352z"/></g><defs><clipPath id="hclip0_32_63"><path d="M0 0h183v183H0z"/></clipPath></defs></symbol><symbol viewBox="0 0 15 16" id="phone" xmlns="http://www.w3.org/2000/svg"><path fill-rule="evenodd" clip-rule="evenodd" d="M3.01 1.272c.28-.137.58-.232.836-.233.169 0 .33.052.455.105.135.057.274.135.412.224.275.177.575.42.86.696.549.534 1.132 1.282 1.29 2.018.066.313 0 .63-.17.888a6.573 6.573 0 01-.414.549c-.112.139-.22.274-.321.41-.117.16-.21.304-.274.433a.652.652 0 00-.081.266c0 .229.142.68.453 1.241.3.54.718 1.11 1.182 1.566.49.48.922.836 1.306 1.07.358.217.645.31.875.322a.72.72 0 00.044-.04 3.52 3.52 0 00.154-.169l.009-.01c.059-.067.13-.147.208-.229.344-.357.862-.76 1.718-.763.668-.003 1.353.348 1.894.812.55.472 1.024 1.122 1.242 1.833.184.603-.11 1.12-.46 1.476-.35.36-.844.656-1.323.886a4.92 4.92 0 01-2.577.443c-1.555-.143-3.722-.752-6.29-3.166a.485.485 0 01-.024-.025C2.555 10.304 1.76 8.972 1.346 7.754.93 6.533.91 5.464.944 4.458a3.617 3.617 0 011.16-2.556 3.74 3.74 0 01.907-.63zM2.8 2.644a2.6 2.6 0 00-.84 1.847c-.03.964-.007 1.888.35 2.935.355 1.046 1.056 2.254 2.438 3.744 2.393 2.246 4.342 2.76 5.673 2.883a3.904 3.904 0 002.044-.348c.435-.208.805-.444 1.036-.68.234-.238.24-.38.214-.467-.151-.493-.5-.987-.932-1.358-.44-.378-.896-.568-1.228-.567-.478.002-.75.205-.988.452-.062.064-.12.13-.182.2l-.004.005c-.06.068-.13.148-.201.219-.13.128-.365.336-.705.337-.495.002-.985-.184-1.46-.473-.476-.29-.972-.704-1.49-1.211a8.068 8.068 0 01-1.358-1.8c-.33-.594-.58-1.233-.581-1.73-.001-.264.083-.51.184-.716a3.8 3.8 0 01.368-.59c.115-.155.239-.31.35-.447l.05-.064c.13-.16.232-.291.305-.403a.155.155 0 00.025-.117c-.093-.433-.494-1.005-1.004-1.5a4.755 4.755 0 00-.703-.572 1.78 1.78 0 00-.257-.142.494.494 0 00-.067-.024 1.23 1.23 0 00-.38.13 2.723 2.723 0 00-.656.457z"/></symbol><symbol viewBox="0 0 20 24" id="place" xmlns="http://www.w3.org/2000/svg"><path d="M10.196.25c5.368 0 9.719 4.365 9.719 9.75 0 4.12-2.886 8.61-8.583 13.518a1.74 1.74 0 01-2.275-.002l-.377-.328C3.235 18.408.477 14.028.477 10c0-5.385 4.351-9.75 9.72-9.75zm0 1.5a8.21 8.21 0 00-5.815 2.416A8.263 8.263 0 001.972 10c0 3.502 2.54 7.537 7.69 12.057l.372.323a.249.249 0 00.325 0c5.398-4.652 8.06-8.795 8.06-12.38a8.273 8.273 0 00-2.408-5.834 8.222 8.222 0 00-5.815-2.416zm0 4.5c.992 0 1.942.395 2.643 1.098a3.756 3.756 0 010 5.304 3.732 3.732 0 01-5.286 0 3.756 3.756 0 010-5.304 3.732 3.732 0 012.643-1.098zm0 1.5a2.24 2.24 0 00-1.586.659 2.254 2.254 0 000 3.182 2.24 2.24 0 003.172 0 2.254 2.254 0 000-3.182 2.24 2.24 0 00-1.586-.659z"/></symbol><symbol viewBox="0 0 17 18" id="search" xmlns="http://www.w3.org/2000/svg"><path d="M11.445 11.581l4.134 4.998M13.012 6.94c0 3.487-2.723 6.283-6.046 6.283-3.322 0-6.045-2.796-6.045-6.283C.921 3.454 3.644.658 6.966.658c3.323 0 6.046 2.796 6.046 6.282z"/></symbol><symbol viewBox="0 0 21 20" id="telephone" xmlns="http://www.w3.org/2000/svg"><g clip-path="url(#lclip0_34_13)"><path d="M16 19.689c-.187 0-.372-.021-.554-.061a18.758 18.758 0 01-9.204-4.861 18.188 18.188 0 01-4.984-9.028 2.552 2.552 0 01.748-2.378L4.22 1.222a1.107 1.107 0 01.853-.3 1.105 1.105 0 01.803.484L8.645 5.51a.891.891 0 01-.06 1.056l-1.39 1.666a10.522 10.522 0 002.309 3.273 10.664 10.664 0 003.361 2.272l1.723-1.372a.907.907 0 011.03-.067l4.18 2.711a1.108 1.108 0 01.484 1.303 1.11 1.11 0 01-.256.425l-2.16 2.144A2.624 2.624 0 0116 19.69zM4.985 2.022L2.77 4.162a1.412 1.412 0 00-.416 1.333 17.07 17.07 0 004.658 8.477 17.647 17.647 0 008.661 4.572 1.518 1.518 0 001.384-.41l2.16-2.145-4.037-2.617-1.85 1.478a.553.553 0 01-.509.095 11.106 11.106 0 01-4.076-2.64 10.829 10.829 0 01-2.697-4 .557.557 0 01.133-.527l1.495-1.795-2.691-3.96z"/></g><defs><clipPath id="lclip0_34_13"><path transform="translate(.643)" d="M0 0h19.936v20H0z"/></clipPath></defs></symbol></svg>