<?xml version="1.0" encoding="utf-8"?><svg xmlns="http://www.w3.org/2000/svg" xmlns:xlink="http://www.w3.org/1999/xlink"><symbol viewBox="0 0 7 7" id="arrow-bottom" xmlns="http://www.w3.org/2000/svg"><path d="M1.75 2.1L3.5 3.85 5.25 2.1l.7.35L3.5 4.9 1.05 2.45l.7-.35z"/></symbol><symbol viewBox="0 0 15 22" id="basket" xmlns="http://www.w3.org/2000/svg"><path d="M4.688 8.717V3.201S4.848.837 7.302.837c2.454 0 2.613 2.364 2.613 2.364v5.516M.681 20.93h13.614a.1.1 0 00.1-.1V6.06a.1.1 0 00-.1-.1H.681a.1.1 0 00-.1.1v14.77a.1.1 0 00.1.1z"/></symbol><symbol viewBox="0 0 15 16" id="phone" xmlns="http://www.w3.org/2000/svg"><path fill-rule="evenodd" clip-rule="evenodd" d="M3.01 1.272c.28-.137.58-.232.836-.233.169 0 .33.052.455.105.135.057.274.135.412.224.275.177.575.42.86.696.549.534 1.132 1.282 1.29 2.018.066.313 0 .63-.17.888a6.573 6.573 0 01-.414.549c-.112.139-.22.274-.321.41-.117.16-.21.304-.274.433a.652.652 0 00-.081.266c0 .229.142.68.453 1.241.3.54.718 1.11 1.182 1.566.49.48.922.836 1.306 1.07.358.217.645.31.875.322a.72.72 0 00.044-.04 3.52 3.52 0 00.154-.169l.009-.01c.059-.067.13-.147.208-.229.344-.357.862-.76 1.718-.763.668-.003 1.353.348 1.894.812.55.472 1.024 1.122 1.242 1.833.184.603-.11 1.12-.46 1.476-.35.36-.844.656-1.323.886a4.92 4.92 0 01-2.577.443c-1.555-.143-3.722-.752-6.29-3.166a.485.485 0 01-.024-.025C2.555 10.304 1.76 8.972 1.346 7.754.93 6.533.91 5.464.944 4.458a3.617 3.617 0 011.16-2.556 3.74 3.74 0 01.907-.63zM2.8 2.644a2.6 2.6 0 00-.84 1.847c-.03.964-.007 1.888.35 2.935.355 1.046 1.056 2.254 2.438 3.744 2.393 2.246 4.342 2.76 5.673 2.883a3.904 3.904 0 002.044-.348c.435-.208.805-.444 1.036-.68.234-.238.24-.38.214-.467-.151-.493-.5-.987-.932-1.358-.44-.378-.896-.568-1.228-.567-.478.002-.75.205-.988.452-.062.064-.12.13-.182.2l-.004.005c-.06.068-.13.148-.201.219-.13.128-.365.336-.705.337-.495.002-.985-.184-1.46-.473-.476-.29-.972-.704-1.49-1.211a8.068 8.068 0 01-1.358-1.8c-.33-.594-.58-1.233-.581-1.73-.001-.264.083-.51.184-.716a3.8 3.8 0 01.368-.59c.115-.155.239-.31.35-.447l.05-.064c.13-.16.232-.291.305-.403a.155.155 0 00.025-.117c-.093-.433-.494-1.005-1.004-1.5a4.755 4.755 0 00-.703-.572 1.78 1.78 0 00-.257-.142.494.494 0 00-.067-.024 1.23 1.23 0 00-.38.13 2.723 2.723 0 00-.656.457z"/></symbol><symbol viewBox="0 0 17 18" id="search" xmlns="http://www.w3.org/2000/svg"><path d="M11.445 11.581l4.134 4.998M13.012 6.94c0 3.487-2.723 6.283-6.046 6.283-3.322 0-6.045-2.796-6.045-6.283C.921 3.454 3.644.658 6.966.658c3.323 0 6.046 2.796 6.046 6.282z"/></symbol></svg>