<svg width="35" height="35" viewBox="0 0 35 35" fill="none" xmlns="http://www.w3.org/2000/svg">
<path d="M26.1437 11.3075C26.1768 10.6175 25.645 10.0313 24.9559 9.99825L13.7265 9.45973C13.0374 9.42668 12.452 9.95928 12.4189 10.6493C12.3858 11.3394 12.9176 11.9255 13.6067 11.9586L23.5883 12.4373L23.109 22.4326C23.0759 23.1227 23.6077 23.7088 24.2968 23.7419C24.9859 23.7749 25.5713 23.2423 25.6044 22.5523L26.1437 11.3075ZM10.0328 26.459L25.7359 12.1735L24.0561 10.3219L8.35298 24.6074L10.0328 26.459Z" fill="#F2F5F5"/>
<path d="M23.4473 2.99909L3.46924 2.04102L2.03015 32.0492L31.9972 33.4863L33.0046 12.4806" stroke="#F2F5F5" stroke-width="3" stroke-linecap="round" stroke-linejoin="round"/>
</svg>
